# Blender v3.3.1 OBJ File: ''
# www.blender.org
mtllib meshCat.mtl
o meshCat.001_meshCat
v 0.005204 0.000230 0.220326
v 0.022567 0.000230 0.245319
v 0.005197 0.000223 0.235068
v 0.018403 0.000230 0.214612
v 0.033095 0.000230 0.220326
v 0.036148 0.000230 0.235079
v -0.036148 0.000230 0.235079
v -0.033095 0.000230 0.220326
v -0.022567 0.000230 0.245319
v -0.018403 0.000230 0.214612
v -0.005204 0.000230 0.220326
v -0.005197 0.000226 0.235073
v -0.022363 -0.000261 -0.037861
v -0.024525 -0.000261 -0.006641
v -0.038001 -0.000261 -0.028958
v -0.007093 -0.000261 -0.028958
v -0.007090 -0.000261 -0.016882
v -0.038072 -0.000261 -0.016882
v 0.024567 -0.000305 -0.006641
v 0.007135 -0.000305 -0.028957
v 0.022405 -0.000305 -0.037860
v 0.007132 -0.000305 -0.016881
v 0.038043 -0.000305 -0.028957
v 0.038114 -0.000305 -0.016881
v -0.045870 0.322375 0.328416
v -0.028595 0.302020 0.317226
v -0.021667 0.304851 0.321682
v -0.057754 0.322368 0.325985
v -0.038651 0.294296 0.314700
v -0.061307 0.312328 0.323067
v -0.045454 0.280027 0.318850
v 0.029801 0.303173 0.312619
v 0.021667 0.304851 0.321682
v 0.045870 0.322375 0.328416
v 0.057754 0.322368 0.325985
v 0.037080 0.296579 0.310773
v 0.061307 0.312328 0.323067
v 0.045454 0.280027 0.318850
v -0.029801 0.303173 0.312619
v -0.057754 0.322368 0.325985
v -0.045870 0.322375 0.328416
v -0.037080 0.296579 0.310773
v -0.061307 0.312328 0.323067
v -0.045454 0.280027 0.318850
v -0.021667 0.304851 0.321682
v 0.057754 0.322368 0.325985
v 0.045870 0.322375 0.328416
v 0.028595 0.302020 0.317226
v 0.021667 0.304851 0.321682
v 0.038651 0.294296 0.314700
v 0.061307 0.312328 0.323067
v 0.045454 0.280027 0.318850
v -0.021667 0.304851 0.321682
v 0.000000 0.309359 0.318397
v -0.029801 0.303173 0.312619
v 0.000001 0.295764 0.366600
v 0.021667 0.304851 0.321682
v 0.029801 0.303173 0.312619
v 0.021393 0.291332 0.365132
v 0.035638 0.296566 0.321767
v 0.028595 0.302020 0.317226
v 0.038651 0.294296 0.314700
v 0.045454 0.280027 0.318850
v 0.046276 0.272295 0.351305
v 0.037589 0.284187 0.359087
v 0.031668 0.279863 0.361633
v 0.034300 0.275066 0.360340
v 0.025949 0.273652 0.368687
v 0.017745 0.277817 0.366504
v 0.000001 0.279212 0.372670
v -0.021390 0.291332 0.365132
v -0.035638 0.296566 0.321767
v -0.028595 0.302020 0.317226
v -0.038651 0.294296 0.314700
v -0.045454 0.280027 0.318850
v -0.046273 0.272295 0.351305
v -0.038029 0.284809 0.357602
v -0.031665 0.279863 0.361633
v -0.034297 0.275066 0.360340
v -0.025947 0.273652 0.368687
v -0.017742 0.277816 0.366504
v -0.014268 0.272219 0.369440
v -0.017664 0.267660 0.367501
v -0.025509 0.266371 0.365426
v -0.031776 0.268813 0.361754
v -0.028131 0.259773 0.366162
v -0.007648 0.260828 0.394588
v 0.000001 0.260828 0.396153
v 0.007650 0.260828 0.394588
v 0.014270 0.272219 0.369440
v 0.017667 0.267660 0.367501
v 0.025511 0.266371 0.365426
v 0.031779 0.268813 0.361754
v 0.028134 0.259773 0.366162
v 0.022401 0.247006 0.381602
v 0.033127 0.237573 0.359019
v 0.047231 0.240059 0.341694
v 0.047486 0.240058 0.306738
v 0.049039 0.272483 0.307314
v 0.037080 0.296579 0.310773
v -0.049039 0.272483 0.307314
v -0.037080 0.296579 0.310773
v -0.047486 0.240057 0.306738
v -0.047228 0.240059 0.341694
v -0.033125 0.237573 0.359019
v -0.022399 0.247006 0.381602
v -0.011896 0.236598 0.392985
v 0.000001 0.252546 0.395504
v 0.011898 0.236598 0.392985
v 0.021112 0.231816 0.380359
v 0.026384 0.226181 0.358068
v 0.035777 0.219085 0.337356
v 0.030568 0.215974 0.306362
v 0.000001 0.236932 0.391243
v -0.015575 0.230635 0.383866
v -0.021109 0.231816 0.380359
v -0.026381 0.226181 0.358068
v -0.035775 0.219085 0.337356
v -0.030568 0.215974 0.306362
v 0.015577 0.230635 0.383866
v -0.029801 0.303173 0.312619
v 0.000000 0.309359 0.318397
v -0.025273 0.290344 0.291689
v -0.001429 0.293895 0.291690
v 0.025274 0.290344 0.291689
v 0.029801 0.303173 0.312619
v 0.037080 0.296579 0.310773
v 0.049039 0.272483 0.307314
v 0.040148 0.258301 0.291543
v 0.039491 0.248486 0.277640
v 0.022860 0.283161 0.275612
v 0.000001 0.286320 0.275308
v -0.022860 0.283161 0.275612
v -0.039491 0.248486 0.277640
v -0.040148 0.258301 0.291543
v -0.049039 0.272483 0.307314
v -0.037080 0.296579 0.310773
v -0.025098 0.274896 0.244711
v -0.000000 0.278707 0.244711
v 0.025098 0.274896 0.244711
v 0.038839 0.234926 0.260192
v 0.034668 0.200721 0.260721
v 0.034625 0.222581 0.277345
v 0.035258 0.231098 0.291238
v 0.047486 0.240058 0.306738
v 0.025948 0.209048 0.291079
v 0.025294 0.201125 0.277194
v 0.024845 0.178206 0.261043
v 0.060165 0.207633 0.243381
v 0.050091 0.252952 0.243726
v 0.035999 0.283249 0.204938
v 0.055607 0.263332 0.206386
v 0.060165 0.199856 0.207064
v 0.056381 0.204139 0.179041
v 0.044784 0.257736 0.174540
v 0.025570 0.276330 0.172184
v -0.000001 0.279587 0.204938
v -0.035999 0.283249 0.204938
v -0.050091 0.252952 0.243726
v -0.055607 0.263332 0.206386
v -0.044784 0.257736 0.174540
v -0.025570 0.276330 0.172184
v -0.000001 0.273065 0.172184
v -0.000000 0.274718 0.139882
v -0.034486 0.269871 0.139843
v -0.059921 0.253890 0.139921
v -0.034068 0.271928 0.098305
v -0.000000 0.275788 0.098737
v 0.034486 0.269871 0.139843
v 0.059921 0.253890 0.139921
v 0.069422 0.205277 0.139911
v 0.065924 0.254351 0.096292
v 0.034068 0.271928 0.098305
v -0.000000 0.289673 0.054813
v -0.033647 0.286999 0.054813
v -0.037320 0.295084 0.004038
v -0.057991 0.277776 0.001686
v -0.029532 0.279182 -0.045719
v -0.000000 0.294148 0.001706
v 0.037320 0.295084 0.004038
v 0.029532 0.279182 -0.045719
v 0.057991 0.277776 0.001686
v 0.033647 0.286999 0.054813
v 0.055012 0.267289 0.054813
v 0.067335 0.249565 0.006777
v 0.056053 0.256685 -0.035049
v 0.029532 0.253045 -0.045748
v 0.029315 0.218171 -0.044838
v 0.060755 0.198509 -0.037168
v 0.071649 0.205928 0.009034
v 0.056558 0.218321 0.051336
v 0.072259 0.205612 0.090747
v 0.062468 0.161132 0.139895
v 0.047350 0.159354 0.179041
v 0.051583 0.125226 0.196547
v 0.051583 0.139969 0.228950
v 0.028874 0.161622 0.243381
v 0.035688 0.139969 0.235299
v 0.034567 0.106915 0.222746
v 0.048350 0.106915 0.216397
v 0.048350 0.106915 0.201099
v 0.035076 0.125027 0.190903
v 0.031511 0.142302 0.179041
v 0.037808 0.139836 0.139896
v 0.062541 0.164533 0.086032
v 0.029577 0.158966 0.060994
v 0.042234 0.156295 0.062773
v 0.052361 0.154260 0.050137
v 0.063885 0.154585 0.009498
v 0.052615 0.146074 -0.018755
v 0.038928 0.146155 -0.033570
v 0.029843 0.184792 -0.044441
v 0.000000 0.288254 -0.045702
v -0.056053 0.256685 -0.035049
v -0.029532 0.253045 -0.045748
v -0.029315 0.218171 -0.044838
v -0.060740 0.198500 -0.037159
v -0.067335 0.249565 0.006777
v -0.055012 0.267289 0.054813
v -0.065924 0.254351 0.096292
v -0.069422 0.205277 0.139911
v -0.072259 0.205612 0.090747
v -0.056554 0.218330 0.051342
v -0.071639 0.205926 0.009041
v -0.063864 0.154584 0.009514
v -0.052344 0.154269 0.050154
v -0.042218 0.156309 0.062791
v -0.029562 0.158982 0.061012
v -0.062541 0.164533 0.086032
v -0.062468 0.161132 0.139895
v -0.056381 0.204139 0.179041
v -0.060165 0.199856 0.207064
v -0.060165 0.207633 0.243381
v -0.038839 0.234926 0.260192
v -0.034668 0.200721 0.260721
v -0.024845 0.178206 0.261043
v -0.034625 0.222581 0.277345
v -0.035258 0.231098 0.291238
v -0.047486 0.240057 0.306738
v -0.025946 0.209048 0.291078
v -0.025294 0.201125 0.277194
v -0.028874 0.161622 0.243381
v -0.051583 0.139969 0.228950
v -0.051583 0.125226 0.196547
v -0.047350 0.159354 0.179041
v -0.031511 0.142302 0.179041
v -0.037808 0.139836 0.139896
v -0.037540 0.143369 0.083633
v -0.032650 0.124695 0.043832
v -0.041227 0.129201 0.039301
v -0.048669 0.103923 -0.017982
v -0.052591 0.146070 -0.018736
v -0.038901 0.146154 -0.033548
v -0.029825 0.184789 -0.044427
v -0.030568 0.215974 0.306362
v 0.030568 0.215974 0.306362
v 0.037540 0.143369 0.083633
v -0.035688 0.139969 0.235298
v -0.032391 0.106915 0.222746
v -0.046175 0.106915 0.216397
v -0.046175 0.106915 0.201099
v -0.035076 0.125027 0.190903
v -0.031961 0.106915 0.195385
v -0.045161 0.100799 0.201170
v -0.030206 0.100798 0.195482
v -0.028613 0.030395 0.212418
v -0.030908 0.030395 0.227848
v -0.045314 0.100810 0.216395
v -0.030703 0.100843 0.222742
v -0.020266 0.030395 0.234196
v -0.019739 0.025532 0.235745
v -0.034697 0.025532 0.229396
v -0.033148 0.025532 0.212418
v -0.019371 0.030395 0.206704
v -0.019478 0.025532 0.206704
v 0.032681 0.124685 0.043803
v 0.041258 0.129194 0.039273
v 0.042096 0.097393 -0.003493
v 0.048678 0.103904 -0.018012
v 0.050579 0.116603 -0.048766
v 0.030513 0.117569 -0.056723
v 0.041799 0.109449 -0.061801
v 0.031375 0.108691 -0.069258
v 0.043886 0.088010 -0.059357
v 0.047843 0.099786 -0.051611
v 0.043940 0.090557 -0.040069
v 0.027883 0.088175 -0.033211
v 0.030655 0.094765 0.005569
v 0.035325 0.030071 -0.024024
v 0.022372 0.030360 -0.015257
v 0.022497 0.024996 -0.010583
v 0.036466 0.025081 -0.020059
v 0.033749 0.028847 -0.037589
v 0.031306 0.087289 -0.066784
v 0.022074 0.028127 -0.047240
v 0.033385 0.024996 -0.038018
v 0.022423 0.024996 -0.049142
v -0.050593 0.116625 -0.048749
v -0.048798 0.099827 -0.051609
v -0.049107 0.109489 -0.061800
v -0.030539 0.117597 -0.056722
v -0.030521 0.108732 -0.069258
v -0.043015 0.088051 -0.059355
v -0.043068 0.090598 -0.040068
v -0.042065 0.097408 -0.003460
v -0.030617 0.094780 0.005596
v -0.027007 0.088217 -0.033211
v -0.021924 0.030405 -0.015256
v -0.034878 0.030115 -0.024023
v -0.033306 0.028891 -0.037587
v -0.030438 0.087331 -0.066783
v -0.021632 0.028172 -0.047239
v -0.033343 0.025041 -0.038018
v -0.022381 0.025041 -0.049143
v -0.036424 0.025126 -0.020060
v -0.022455 0.025041 -0.010584
v -0.008395 0.025126 -0.020060
v -0.008234 0.030085 -0.023939
v -0.027007 0.088217 -0.033211
v -0.014345 0.090566 -0.039978
v -0.030617 0.094780 0.005596
v -0.018419 0.097092 -0.002612
v -0.032650 0.124695 0.043832
v -0.024758 0.128903 0.039078
v -0.029562 0.158982 0.061012
v -0.013125 0.154124 0.009289
v -0.015129 0.145874 -0.018831
v -0.014080 0.116320 -0.048040
v -0.013540 0.109394 -0.061780
v -0.014293 0.088019 -0.059265
v -0.030438 0.087331 -0.066783
v -0.030521 0.108732 -0.069258
v -0.030539 0.117597 -0.056722
v -0.038901 0.146154 -0.033548
v -0.029825 0.184789 -0.044427
v 0.034137 0.106915 0.195385
v 0.047337 0.100799 0.201170
v 0.032382 0.100798 0.195482
v 0.028613 0.030395 0.212418
v 0.030908 0.030395 0.227848
v 0.047490 0.100810 0.216395
v 0.032879 0.100843 0.222742
v 0.020266 0.030395 0.234196
v 0.019739 0.025532 0.235745
v 0.034697 0.025532 0.229396
v 0.033148 0.025532 0.212418
v 0.019371 0.030395 0.206704
v 0.019478 0.025532 0.206704
v -0.009516 0.028864 -0.037513
v -0.011390 0.025041 -0.038018
v -0.022381 0.025041 -0.049143
v -0.021632 0.028172 -0.047239
v 0.008436 0.025081 -0.020059
v 0.008682 0.030041 -0.023939
v 0.027883 0.088175 -0.033211
v 0.015218 0.090524 -0.039977
v 0.030655 0.094765 0.005569
v 0.018451 0.097074 -0.002625
v 0.032681 0.124685 0.043803
v 0.024789 0.128892 0.039049
v 0.029577 0.158966 0.060994
v 0.013145 0.154114 0.009268
v 0.015156 0.145871 -0.018853
v 0.014062 0.116292 -0.048025
v 0.014397 0.109352 -0.061779
v 0.015164 0.087977 -0.059265
v 0.031306 0.087289 -0.066784
v 0.031375 0.108691 -0.069258
v 0.030513 0.117569 -0.056723
v 0.038928 0.146155 -0.033570
v 0.029843 0.184792 -0.044441
v 0.009961 0.028820 -0.037512
v 0.011432 0.024996 -0.038018
v 0.022423 0.024996 -0.049142
v 0.022074 0.028127 -0.047240
v -0.035688 0.139969 0.235298
v -0.022140 0.139969 0.228950
v -0.019018 0.106915 0.216397
v -0.022151 0.124872 0.196672
v -0.019018 0.106915 0.201099
v -0.031961 0.106915 0.195385
v -0.035076 0.125027 0.190903
v -0.031511 0.142302 0.179041
v -0.032391 0.106915 0.222746
v -0.018821 0.100869 0.216392
v -0.009651 0.030395 0.227848
v -0.020266 0.030395 0.234196
v -0.006450 0.025532 0.229396
v -0.007928 0.025532 0.212418
v -0.011965 0.030395 0.212418
v -0.018707 0.100797 0.201216
v -0.030206 0.100798 0.195482
v -0.019371 0.030395 0.206704
v -0.019478 0.025532 0.206704
v 0.035688 0.139969 0.235299
v 0.022140 0.139969 0.228950
v 0.021194 0.106915 0.216397
v 0.034567 0.106915 0.222746
v 0.020996 0.100869 0.216392
v 0.009651 0.030395 0.227848
v 0.020266 0.030395 0.234196
v 0.006450 0.025532 0.229396
v 0.007928 0.025532 0.212418
v 0.011965 0.030395 0.212418
v 0.020883 0.100797 0.201216
v 0.021194 0.106915 0.201099
v 0.022151 0.124872 0.196672
v 0.034137 0.106915 0.195385
v 0.035076 0.125027 0.190903
v 0.031511 0.142302 0.179041
v 0.032382 0.100798 0.195482
v 0.019371 0.030395 0.206704
v 0.019478 0.025532 0.206704
v 0.000000 0.288254 -0.045702
v 0.029532 0.279182 -0.045719
v 0.019555 0.275056 -0.086798
v 0.000000 0.281815 -0.086773
v -0.019554 0.275056 -0.086798
v -0.029532 0.279182 -0.045719
v -0.019554 0.255666 -0.086869
v -0.029532 0.253045 -0.045748
v 0.000000 0.246227 -0.086904
v -0.000000 0.249980 -0.165228
v -0.015524 0.257526 -0.165228
v -0.015524 0.273025 -0.165228
v -0.000000 0.278428 -0.165228
v 0.015524 0.273025 -0.165228
v 0.015524 0.257526 -0.165228
v 0.019555 0.255666 -0.086869
v 0.029532 0.253045 -0.045748
v -0.000001 0.249911 -0.258025
v -0.015607 0.257496 -0.258025
v -0.015607 0.273078 -0.258025
v -0.000001 0.278510 -0.258025
v 0.015605 0.273078 -0.258025
v 0.015605 0.257496 -0.258025
v 0.000001 0.250631 -0.317222
v -0.013982 0.257841 -0.317222
v -0.013982 0.272658 -0.317222
v 0.000001 0.277825 -0.317222
v 0.013983 0.272658 -0.317222
v 0.013983 0.257841 -0.317222
v 0.000000 0.254562 -0.356217
v -0.009656 0.259787 -0.356217
v -0.009656 0.270566 -0.356217
v 0.000000 0.274344 -0.356217
v 0.009657 0.270566 -0.356217
v 0.009657 0.259787 -0.356217
v 0.000000 0.264960 -0.364951
v 0.000000 0.240309 -0.045748
v 0.000000 0.240309 -0.045748
v -0.008842 0.225279 -0.049509
v -0.029532 0.253045 -0.045748
v -0.029315 0.218171 -0.044838
v -0.008798 0.213606 -0.049061
v -0.000000 0.220013 -0.047400
v 0.000000 0.230154 -0.049660
v 0.008841 0.225279 -0.049509
v 0.008798 0.213606 -0.049061
v 0.029315 0.218171 -0.044838
v 0.029532 0.253045 -0.045748
v -0.000000 0.208185 -0.049019
v 0.000012 0.179004 -0.044565
v 0.029843 0.184792 -0.044441
v 0.015156 0.145871 -0.018853
v 0.013145 0.154114 0.009268
v -0.000000 0.154419 0.061645
v -0.013125 0.154124 0.009289
v -0.015129 0.145874 -0.018831
v -0.029825 0.184789 -0.044427
v 0.029577 0.158966 0.060994
v 0.000000 0.140046 0.083233
v -0.029562 0.158982 0.061012
v -0.037540 0.143369 0.083633
v 0.000000 0.133602 0.139901
v 0.037540 0.143369 0.083633
v 0.037808 0.139836 0.139896
v -0.000010 0.140796 0.179041
v 0.031511 0.142302 0.179041
v -0.000010 0.140604 0.209054
v -0.031511 0.142302 0.179041
v -0.022151 0.124872 0.196672
v -0.022140 0.139969 0.228950
v -0.017112 0.164672 0.241386
v -0.000009 0.159161 0.247338
v -0.000001 0.171281 0.261043
v -0.024845 0.178206 0.261043
v -0.025294 0.201125 0.277194
v 0.000000 0.194222 0.277459
v -0.025946 0.209048 0.291078
v -0.002091 0.204385 0.291078
v -0.030568 0.215974 0.306362
v 0.000000 0.210836 0.306362
v -0.035775 0.219085 0.337356
v 0.000002 0.213947 0.337356
v 0.035777 0.219085 0.337356
v 0.030568 0.215974 0.306362
v 0.025948 0.209048 0.291079
v 0.025294 0.201125 0.277194
v 0.024845 0.178206 0.261043
v 0.017112 0.164672 0.241386
v 0.022140 0.139969 0.228950
v 0.028874 0.161622 0.243381
v 0.000001 0.218190 0.358068
v -0.026381 0.226181 0.358068
v -0.010295 0.224384 0.378247
v -0.015575 0.230635 0.383866
v 0.000001 0.228896 0.388973
v 0.000001 0.236932 0.391243
v 0.015577 0.230635 0.383866
v 0.010297 0.224384 0.378247
v 0.026384 0.226181 0.358068
v 0.000001 0.222223 0.378247
v -0.028874 0.161622 0.243381
v -0.037808 0.139836 0.139896
v 0.022151 0.124872 0.196672
v -0.033148 0.025532 0.212418
v -0.019478 0.025532 0.206704
v -0.035252 0.008259 0.212418
v -0.020193 0.008259 0.206704
v -0.007928 0.025532 0.212418
v -0.003481 0.008259 0.212418
v -0.003472 0.013874 0.239021
v -0.006450 0.025532 0.229396
v -0.022603 0.013874 0.249262
v -0.019739 0.025532 0.235745
v -0.034697 0.025532 0.229396
v -0.038447 0.013874 0.239021
v -0.036148 0.000230 0.235079
v -0.022567 0.000230 0.245319
v -0.005197 0.000226 0.235073
v -0.005204 0.000230 0.220326
v -0.018403 0.000230 0.214612
v -0.033095 0.000230 0.220326
v 0.003472 0.013874 0.239021
v 0.007928 0.025532 0.212418
v 0.003481 0.008259 0.212418
v 0.006450 0.025532 0.229396
v 0.022603 0.013874 0.249262
v 0.019739 0.025532 0.235745
v 0.034697 0.025532 0.229396
v 0.038447 0.013874 0.239021
v 0.033148 0.025532 0.212418
v 0.035251 0.008260 0.212418
v 0.019478 0.025532 0.206704
v 0.020193 0.008260 0.206704
v 0.018403 0.000230 0.214612
v 0.033095 0.000230 0.220326
v 0.036148 0.000230 0.235079
v 0.022567 0.000230 0.245319
v 0.005197 0.000223 0.235068
v 0.005204 0.000230 0.220326
v -0.036424 0.025126 -0.020060
v -0.033343 0.025041 -0.038018
v -0.040375 0.013383 -0.012939
v -0.038375 0.007769 -0.036866
v -0.022381 0.025041 -0.049143
v -0.022434 0.007769 -0.045769
v -0.011390 0.025041 -0.038018
v -0.005369 0.007769 -0.036866
v -0.005365 0.013383 -0.012939
v -0.008395 0.025126 -0.020060
v -0.024525 0.013383 -0.002699
v -0.022455 0.025041 -0.010584
v -0.024525 -0.000261 -0.006641
v -0.038072 -0.000261 -0.016882
v -0.038001 -0.000261 -0.028958
v -0.022363 -0.000261 -0.037861
v -0.007093 -0.000261 -0.028958
v -0.007090 -0.000261 -0.016882
v 0.011432 0.024996 -0.038018
v 0.005407 0.013338 -0.012939
v 0.008436 0.025081 -0.020059
v 0.024567 0.013338 -0.002698
v 0.022497 0.024996 -0.010583
v 0.036466 0.025081 -0.020059
v 0.040417 0.013338 -0.012939
v 0.033385 0.024996 -0.038018
v 0.038417 0.007724 -0.036865
v 0.022423 0.024996 -0.049142
v 0.022476 0.007724 -0.045768
v 0.005411 0.007724 -0.036865
v 0.007132 -0.000305 -0.016881
v 0.024567 -0.000305 -0.006641
v 0.038114 -0.000305 -0.016881
v 0.038043 -0.000305 -0.028957
v 0.022405 -0.000305 -0.037860
v 0.007135 -0.000305 -0.028957
vt 0.010090 0.573334
vt 0.065644 0.657794
vt 0.010067 0.623189
vt 0.052322 0.554025
vt 0.099332 0.573334
vt 0.109100 0.623189
vt 0.109100 0.623189
vt 0.099332 0.573334
vt 0.065644 0.657794
vt 0.052322 0.554025
vt 0.010090 0.573334
vt 0.010067 0.623189
vt 0.058710 0.549096
vt 0.065628 0.654594
vt 0.108745 0.579181
vt 0.009850 0.579181
vt 0.009840 0.619989
vt 0.108973 0.619989
vt 0.065628 0.654594
vt 0.009850 0.579181
vt 0.058710 0.549096
vt 0.009840 0.619989
vt 0.108745 0.579181
vt 0.108973 0.619989
vt 0.393897 0.462933
vt 0.453355 0.425278
vt 0.416869 0.408095
vt 0.403124 0.514466
vt 0.495198 0.445535
vt 0.435338 0.519347
vt 0.546307 0.465253
vt 0.348329 0.375548
vt 0.332647 0.371300
vt 0.329320 0.474419
vt 0.343937 0.504064
vt 0.368096 0.385323
vt 0.365442 0.497023
vt 0.401266 0.405505
vt 0.348329 0.375548
vt 0.343937 0.504064
vt 0.329320 0.474419
vt 0.368096 0.385323
vt 0.365442 0.497023
vt 0.401266 0.405505
vt 0.332647 0.371300
vt 0.403124 0.514466
vt 0.393897 0.462933
vt 0.453355 0.425278
vt 0.416869 0.408095
vt 0.495198 0.445535
vt 0.435338 0.519347
vt 0.546307 0.465253
vt 0.402376 0.403264
vt 0.328049 0.257112
vt 0.346669 0.382656
vt 0.497168 0.254696
vt 0.402376 0.403264
vt 0.346669 0.382656
vt 0.509394 0.326785
vt 0.463119 0.430595
vt 0.441278 0.447017
vt 0.483121 0.467274
vt 0.546307 0.484577
vt 0.576943 0.436747
vt 0.519680 0.381692
vt 0.539437 0.364609
vt 0.567693 0.380277
vt 0.575669 0.338782
vt 0.549117 0.312437
vt 0.547707 0.256740
vt 0.509394 0.326785
vt 0.463119 0.430595
vt 0.441278 0.447017
vt 0.483121 0.467274
vt 0.546307 0.484577
vt 0.576943 0.436747
vt 0.516838 0.384149
vt 0.539437 0.364609
vt 0.567693 0.380277
vt 0.575669 0.338782
vt 0.549117 0.312437
vt 0.581891 0.305530
vt 0.597203 0.317838
vt 0.601536 0.344078
vt 0.593113 0.371197
vt 0.629865 0.358068
vt 0.653018 0.286316
vt 0.644633 0.256740
vt 0.653018 0.286316
vt 0.581891 0.305530
vt 0.597203 0.317838
vt 0.601536 0.344078
vt 0.593113 0.371197
vt 0.629865 0.358068
vt 0.685194 0.328600
vt 0.732886 0.376054
vt 0.720221 0.427647
vt 0.722385 0.515784
vt 0.600300 0.516721
vt 0.470407 0.516057
vt 0.600300 0.516721
vt 0.470407 0.516057
vt 0.722385 0.515784
vt 0.720221 0.427647
vt 0.732886 0.376054
vt 0.685194 0.328600
vt 0.725985 0.306876
vt 0.688933 0.256740
vt 0.725985 0.306876
vt 0.748219 0.345703
vt 0.781032 0.351765
vt 0.815842 0.385599
vt 0.840692 0.435706
vt 0.724433 0.256740
vt 0.753706 0.322379
vt 0.748219 0.345703
vt 0.781032 0.351765
vt 0.815842 0.385599
vt 0.840692 0.435706
vt 0.753706 0.322379
vt 0.008638 0.924632
vt 0.008361 0.993339
vt 0.061545 0.927431
vt 0.061545 0.993406
vt 0.061545 0.927431
vt 0.008638 0.924632
vt 0.008726 0.886655
vt 0.008892 0.845030
vt 0.038044 0.842060
vt 0.089788 0.839810
vt 0.121365 0.929005
vt 0.122497 0.993494
vt 0.121365 0.929005
vt 0.089788 0.839810
vt 0.038044 0.842060
vt 0.008892 0.845030
vt 0.008726 0.886655
vt 0.163295 0.928103
vt 0.163295 0.993449
vt 0.163295 0.928103
vt 0.138796 0.844714
vt 0.120768 0.784246
vt 0.090886 0.795036
vt 0.039165 0.794138
vt 0.008920 0.792141
vt 0.049358 0.740171
vt 0.079433 0.742197
vt 0.115227 0.729511
vt 0.195486 0.787433
vt 0.194616 0.850371
vt 0.246578 0.915789
vt 0.259883 0.854391
vt 0.248673 0.774772
vt 0.319380 0.772133
vt 0.319380 0.858904
vt 0.333823 0.934183
vt 0.270733 0.988670
vt 0.246578 0.915789
vt 0.194616 0.850371
vt 0.259883 0.854391
vt 0.319380 0.858904
vt 0.333823 0.934183
vt 0.328992 0.993478
vt 0.449424 0.993461
vt 0.449524 0.920251
vt 0.449326 0.852045
vt 0.572723 0.922312
vt 0.572743 0.993451
vt 0.449524 0.920251
vt 0.449326 0.852045
vt 0.449351 0.773986
vt 0.572750 0.853402
vt 0.572723 0.922312
vt 0.745766 0.993451
vt 0.745766 0.934528
vt 0.873882 0.936471
vt 0.879817 0.892024
vt 0.999501 0.923250
vt 0.879766 0.993444
vt 0.873882 0.936471
vt 0.999501 0.923250
vt 0.879817 0.892024
vt 0.745766 0.934528
vt 0.745766 0.875941
vt 0.866971 0.846516
vt 0.953283 0.857028
vt 0.999500 0.850537
vt 0.997205 0.794976
vt 0.957853 0.762258
vt 0.860699 0.774677
vt 0.754081 0.795545
vt 0.572728 0.774510
vt 0.449390 0.702123
vt 0.319380 0.699228
vt 0.275209 0.643672
vt 0.193451 0.667672
vt 0.159443 0.702921
vt 0.173837 0.667672
vt 0.191562 0.582178
vt 0.225125 0.582178
vt 0.263724 0.582178
vt 0.319278 0.643348
vt 0.363276 0.647440
vt 0.449388 0.643427
vt 0.572816 0.707198
vt 0.678068 0.668206
vt 0.724074 0.694923
vt 0.764791 0.695231
vt 0.858603 0.691225
vt 0.929671 0.677231
vt 0.960558 0.683661
vt 0.994995 0.740321
vt 0.999501 0.993467
vt 0.953283 0.857028
vt 0.999500 0.850537
vt 0.997205 0.794976
vt 0.957853 0.762258
vt 0.866971 0.846516
vt 0.745766 0.875941
vt 0.572750 0.853402
vt 0.449351 0.773986
vt 0.572728 0.774510
vt 0.754081 0.795545
vt 0.860699 0.774677
vt 0.858603 0.691225
vt 0.764791 0.695231
vt 0.724074 0.694923
vt 0.678068 0.668206
vt 0.572816 0.707198
vt 0.449390 0.702123
vt 0.319380 0.772133
vt 0.248673 0.774772
vt 0.195486 0.787433
vt 0.138796 0.844714
vt 0.120768 0.784246
vt 0.115227 0.729511
vt 0.090886 0.795036
vt 0.039165 0.794138
vt 0.008920 0.792141
vt 0.049358 0.740171
vt 0.079433 0.742197
vt 0.159443 0.702921
vt 0.193451 0.667672
vt 0.275209 0.643672
vt 0.319380 0.699228
vt 0.363276 0.647440
vt 0.449388 0.643427
vt 0.572784 0.648496
vt 0.763125 0.599668
vt 0.795229 0.606827
vt 0.893500 0.611531
vt 0.929671 0.677231
vt 0.960558 0.683661
vt 0.994995 0.740321
vt 0.008938 0.731761
vt 0.008938 0.731761
vt 0.572784 0.648496
vt 0.173837 0.667672
vt 0.191562 0.582178
vt 0.225125 0.582178
vt 0.263724 0.582178
vt 0.319278 0.643348
vt 0.302656 0.582178
vt 0.263544 0.572222
vt 0.302295 0.572220
vt 0.232345 0.464859
vt 0.193413 0.464859
vt 0.225129 0.572239
vt 0.191113 0.571982
vt 0.155882 0.464859
vt 0.150013 0.456616
vt 0.189505 0.456943
vt 0.232345 0.456943
vt 0.257853 0.464859
vt 0.257853 0.456943
vt 0.763125 0.599668
vt 0.795229 0.606827
vt 0.854077 0.594470
vt 0.893500 0.611531
vt 0.922898 0.642769
vt 0.960241 0.637942
vt 0.958463 0.610289
vt 0.987226 0.607302
vt 0.955126 0.555766
vt 0.923298 0.600506
vt 0.918351 0.562798
vt 0.882522 0.555766
vt 0.830094 0.569708
vt 0.918058 0.449138
vt 0.869512 0.447177
vt 0.864651 0.438308
vt 0.913197 0.440279
vt 0.954833 0.449134
vt 0.989605 0.555766
vt 0.989312 0.449134
vt 0.955105 0.440265
vt 0.989583 0.440265
vt 0.922898 0.642769
vt 0.923298 0.600506
vt 0.958463 0.610289
vt 0.960241 0.637942
vt 0.987226 0.607302
vt 0.955126 0.555766
vt 0.918351 0.562798
vt 0.854077 0.594470
vt 0.830094 0.569708
vt 0.882522 0.555766
vt 0.869512 0.447177
vt 0.918058 0.449138
vt 0.954833 0.449134
vt 0.989605 0.555766
vt 0.989312 0.449134
vt 0.955105 0.440265
vt 0.989583 0.440265
vt 0.913197 0.440279
vt 0.864651 0.438308
vt 0.911739 0.440395
vt 0.916990 0.449242
vt 0.860802 0.545000
vt 0.889782 0.561083
vt 0.831302 0.570682
vt 0.852012 0.593025
vt 0.764746 0.597460
vt 0.797478 0.615072
vt 0.762562 0.692948
vt 0.856384 0.691487
vt 0.931067 0.680819
vt 0.922387 0.642561
vt 0.953960 0.608077
vt 0.957382 0.560123
vt 0.987949 0.557602
vt 0.986678 0.604316
vt 0.984200 0.638582
vt 0.985481 0.685711
vt 0.995543 0.738813
vt 0.302656 0.582178
vt 0.263544 0.572222
vt 0.302295 0.572220
vt 0.232345 0.464859
vt 0.193413 0.464859
vt 0.225129 0.572239
vt 0.191113 0.571982
vt 0.155882 0.464859
vt 0.150013 0.456616
vt 0.189505 0.456943
vt 0.232345 0.456943
vt 0.257853 0.464859
vt 0.257853 0.456943
vt 0.956715 0.449236
vt 0.957008 0.440378
vt 0.991356 0.440121
vt 0.991063 0.449152
vt 0.911739 0.440395
vt 0.916990 0.449242
vt 0.860802 0.545000
vt 0.889782 0.561083
vt 0.831302 0.570682
vt 0.852012 0.593025
vt 0.764746 0.597460
vt 0.797478 0.615072
vt 0.762562 0.692948
vt 0.856384 0.691487
vt 0.931067 0.680819
vt 0.922387 0.642561
vt 0.953960 0.608077
vt 0.957382 0.560123
vt 0.987949 0.557602
vt 0.986678 0.604316
vt 0.984200 0.638582
vt 0.985481 0.685711
vt 0.995543 0.738813
vt 0.956715 0.449236
vt 0.957008 0.440378
vt 0.991356 0.440121
vt 0.991063 0.449152
vt 0.177269 0.666056
vt 0.195254 0.667422
vt 0.226969 0.582475
vt 0.276650 0.645172
vt 0.264905 0.582475
vt 0.303741 0.584035
vt 0.320419 0.645746
vt 0.319065 0.697544
vt 0.191103 0.584334
vt 0.226983 0.570178
vt 0.191637 0.465568
vt 0.154233 0.466508
vt 0.187417 0.455677
vt 0.233692 0.455676
vt 0.233692 0.465568
vt 0.264586 0.570030
vt 0.303476 0.571592
vt 0.260030 0.463924
vt 0.260031 0.454033
vt 0.177269 0.666056
vt 0.195254 0.667422
vt 0.226969 0.582475
vt 0.191103 0.584334
vt 0.226983 0.570178
vt 0.191637 0.465568
vt 0.154233 0.466508
vt 0.187417 0.455677
vt 0.233692 0.455676
vt 0.233692 0.465568
vt 0.264586 0.570030
vt 0.264905 0.582475
vt 0.276650 0.645172
vt 0.303741 0.584035
vt 0.320419 0.645746
vt 0.319065 0.697544
vt 0.303476 0.571592
vt 0.260030 0.463924
vt 0.260031 0.454033
vt 0.000500 0.246651
vt 0.000500 0.219617
vt 0.129105 0.217754
vt 0.129105 0.247132
vt 0.129105 0.217754
vt 0.000500 0.219617
vt 0.129104 0.176216
vt 0.000499 0.175312
vt 0.129104 0.138565
vt 0.374432 0.146746
vt 0.374432 0.178011
vt 0.374432 0.218057
vt 0.374432 0.244434
vt 0.374432 0.218057
vt 0.374432 0.178011
vt 0.129104 0.176216
vt 0.000499 0.175312
vt 0.664856 0.146746
vt 0.664856 0.178011
vt 0.664856 0.218057
vt 0.664856 0.244433
vt 0.664856 0.218057
vt 0.664856 0.178011
vt 0.850124 0.148647
vt 0.850124 0.179357
vt 0.850124 0.216632
vt 0.850124 0.242742
vt 0.850124 0.216632
vt 0.850124 0.179357
vt 0.972165 0.155761
vt 0.972165 0.183213
vt 0.972165 0.212234
vt 0.972165 0.234926
vt 0.972165 0.212234
vt 0.972165 0.183213
vt 0.999500 0.200228
vt 0.000499 0.139365
vt 0.989736 0.001792
vt 0.940388 0.043886
vt 0.987693 0.095184
vt 0.920259 0.114691
vt 0.903093 0.043542
vt 0.923917 0.001695
vt 0.955916 0.001763
vt 0.940388 0.043886
vt 0.903093 0.043542
vt 0.920259 0.114691
vt 0.987693 0.095184
vt 0.889153 0.001682
vt 0.764538 0.001841
vt 0.859106 0.096720
vt 0.755099 0.105807
vt 0.714716 0.078390
vt 0.670029 0.001756
vt 0.714716 0.078390
vt 0.755099 0.105807
vt 0.859106 0.096720
vt 0.672444 0.092367
vt 0.621219 0.001756
vt 0.672444 0.092367
vt 0.623595 0.123188
vt 0.552481 0.001713
vt 0.623595 0.123188
vt 0.564565 0.127360
vt 0.482998 0.001713
vt 0.495076 0.119234
vt 0.429721 0.001713
vt 0.495076 0.119234
vt 0.451700 0.122956
vt 0.399232 0.101190
vt 0.372325 0.076796
vt 0.373627 0.001713
vt 0.327981 0.001713
vt 0.332812 0.108410
vt 0.282899 0.124107
vt 0.277090 0.001713
vt 0.225909 0.123041
vt 0.218663 0.001713
vt 0.174706 0.121994
vt 0.171538 0.001748
vt 0.116803 0.113969
vt 0.125705 0.001681
vt 0.116803 0.113969
vt 0.174706 0.121994
vt 0.225909 0.123041
vt 0.282899 0.124107
vt 0.332812 0.108410
vt 0.372325 0.076796
vt 0.399232 0.101190
vt 0.373615 0.117628
vt 0.082157 0.001681
vt 0.036211 0.064883
vt 0.042071 0.019338
vt 0.009771 0.033166
vt 0.027888 0.001725
vt 0.003590 0.001715
vt 0.009771 0.033166
vt 0.042071 0.019338
vt 0.036211 0.064883
vt 0.047603 0.001725
vt 0.373615 0.117628
vt 0.564565 0.127360
vt 0.451700 0.122956
vt 0.996122 0.419352
vt 0.900767 0.420259
vt 0.994402 0.309075
vt 0.903428 0.308621
vt 0.826592 0.420259
vt 0.819876 0.308168
vt 0.847994 0.344907
vt 0.869565 0.419806
vt 0.911462 0.344907
vt 0.901728 0.420259
vt 0.952278 0.416632
vt 0.935012 0.344907
vt 0.993122 0.252646
vt 0.909983 0.252192
vt 0.852356 0.252192
vt 0.852380 0.252192
vt 0.896169 0.252192
vt 0.944912 0.252192
vt 0.847994 0.344907
vt 0.826592 0.420259
vt 0.819876 0.308168
vt 0.869565 0.419806
vt 0.911462 0.344907
vt 0.901728 0.420259
vt 0.952278 0.416632
vt 0.935012 0.344907
vt 0.996122 0.419352
vt 0.994402 0.309075
vt 0.900767 0.420259
vt 0.903428 0.308621
vt 0.896169 0.252192
vt 0.944912 0.252192
vt 0.993122 0.252646
vt 0.909983 0.252192
vt 0.852356 0.252192
vt 0.852380 0.252192
vt 0.963018 0.413555
vt 0.996689 0.420259
vt 0.981840 0.344907
vt 0.994876 0.309528
vt 0.904505 0.420259
vt 0.904996 0.308621
vt 0.826429 0.420259
vt 0.818970 0.308621
vt 0.848009 0.344907
vt 0.868865 0.421715
vt 0.911575 0.344907
vt 0.904776 0.420259
vt 0.910214 0.252192
vt 0.961957 0.252192
vt 0.994817 0.251739
vt 0.903041 0.252192
vt 0.852381 0.252192
vt 0.852369 0.252192
vt 0.826429 0.420259
vt 0.848009 0.344907
vt 0.868865 0.421715
vt 0.911575 0.344907
vt 0.904776 0.420259
vt 0.963018 0.413555
vt 0.981840 0.344907
vt 0.996689 0.420259
vt 0.994876 0.309528
vt 0.904505 0.420259
vt 0.904996 0.308621
vt 0.818970 0.308621
vt 0.852369 0.252192
vt 0.910214 0.252192
vt 0.961957 0.252192
vt 0.994817 0.251739
vt 0.903041 0.252192
vt 0.852381 0.252192
vn -0.5998 -0.7734 -0.2052
vn 0.0237 -0.7109 0.7029
vn -0.6355 -0.6983 0.3295
vn -0.0157 -0.8895 -0.4566
vn 0.4785 -0.8315 -0.2824
vn 0.6673 -0.7066 0.2355
vn -0.6673 -0.7066 0.2355
vn -0.4785 -0.8315 -0.2824
vn -0.0237 -0.7108 0.7029
vn 0.0157 -0.8895 -0.4566
vn 0.5998 -0.7734 -0.2052
vn 0.6355 -0.6983 0.3295
vn -0.0079 -0.8764 -0.4816
vn -0.0237 -0.7108 0.7030
vn -0.6649 -0.7203 -0.1979
vn 0.6075 -0.7733 -0.1815
vn 0.6308 -0.7017 0.3311
vn -0.6546 -0.7098 0.2603
vn 0.0237 -0.7108 0.7030
vn -0.6075 -0.7733 -0.1815
vn 0.0079 -0.8764 -0.4816
vn -0.6308 -0.7017 0.3311
vn 0.6649 -0.7203 -0.1979
vn 0.6546 -0.7098 0.2603
vn 0.1025 0.7491 0.6545
vn -0.4870 0.1728 0.8562
vn -0.2444 0.9460 0.2128
vn -0.6368 0.7075 0.3065
vn -0.3235 0.2683 0.9074
vn -0.9862 -0.0079 0.1656
vn -0.9111 0.4084 0.0549
vn 0.0708 0.7865 -0.6135
vn 0.2444 0.9460 0.2128
vn -0.1025 0.7491 0.6545
vn 0.6368 0.7075 0.3066
vn 0.5439 0.3941 -0.7409
vn 0.9862 -0.0079 0.1657
vn 0.9111 0.4084 0.0550
vn -0.0708 0.7865 -0.6135
vn -0.6368 0.7075 0.3066
vn -0.5439 0.3941 -0.7409
vn -0.9862 -0.0079 0.1657
vn -0.9111 0.4084 0.0550
vn 0.6368 0.7075 0.3065
vn 0.4870 0.1728 0.8562
vn 0.2444 0.9460 0.2129
vn 0.3235 0.2683 0.9074
vn 0.9111 0.4084 0.0549
vn -0.2444 0.9460 0.2129
vn 0.0000 0.9939 -0.1104
vn 0.0000 0.7417 0.6707
vn 0.3699 0.5823 0.7239
vn 0.6825 0.7139 0.1569
vn 0.4870 0.1728 0.8561
vn 0.9111 0.4085 0.0550
vn 0.8928 0.1659 0.4188
vn 0.6673 0.4003 0.6280
vn 0.4783 0.1176 0.8703
vn 0.6451 0.0393 0.7631
vn 0.3538 0.1179 0.9279
vn 0.2361 0.2597 0.9364
vn 0.0000 0.5271 0.8498
vn -0.3699 0.5823 0.7240
vn -0.6825 0.7139 0.1569
vn -0.4870 0.1728 0.8561
vn -0.8910 0.1577 0.4258
vn -0.6828 0.4631 0.5651
vn -0.5028 0.1650 0.8485
vn -0.6451 0.0393 0.7631
vn -0.3538 0.1179 0.9279
vn -0.2361 0.2597 0.9364
vn -0.4561 0.3854 0.8021
vn -0.4343 0.3870 0.8134
vn -0.5367 0.1105 0.8365
vn -0.5975 0.0079 0.8019
vn -0.7402 0.1575 0.6536
vn -0.4330 0.4094 0.8031
vn 0.0000 0.3796 0.9252
vn 0.4330 0.4094 0.8031
vn 0.4561 0.3854 0.8021
vn 0.4343 0.3870 0.8134
vn 0.5366 0.1105 0.8365
vn 0.5974 0.0078 0.8019
vn 0.7402 0.1575 0.6537
vn 0.8196 0.0788 0.5674
vn 0.8050 -0.2841 0.5209
vn 0.9229 -0.2762 0.2682
vn 0.9378 -0.2680 -0.2207
vn 0.9306 0.2208 -0.2918
vn 0.5438 0.3941 -0.7409
vn -0.9306 0.2208 -0.2918
vn -0.5438 0.3941 -0.7409
vn -0.9378 -0.2679 -0.2207
vn -0.9229 -0.2761 0.2682
vn -0.8050 -0.2841 0.5209
vn -0.8196 0.0788 0.5674
vn -0.3144 -0.4402 0.8411
vn 0.0000 -0.0948 0.9955
vn 0.3144 -0.4402 0.8410
vn 0.6938 -0.5361 0.4809
vn 0.5525 -0.7341 0.3947
vn 0.5980 -0.7789 0.1888
vn 0.5667 -0.8185 0.0945
vn 0.0000 -0.4025 0.9154
vn -0.3952 -0.7272 0.5612
vn -0.6938 -0.5361 0.4809
vn -0.5525 -0.7341 0.3947
vn -0.5980 -0.7789 0.1888
vn -0.5757 -0.8122 0.0947
vn 0.3952 -0.7272 0.5612
vn -0.4716 0.7073 -0.5266
vn -0.0078 0.8864 -0.4628
vn 0.4654 0.7100 -0.5284
vn 0.8977 0.1417 -0.4173
vn 0.9830 0.1258 -0.1336
vn 0.5745 0.7555 -0.3148
vn -0.0000 0.9414 -0.3373
vn -0.5832 0.7487 -0.3152
vn -0.9830 0.1258 -0.1337
vn -0.8977 0.1417 -0.4173
vn -0.4959 0.8580 0.1338
vn 0.4959 0.8580 0.1338
vn 0.9129 0.1338 0.3856
vn 0.7422 -0.2448 0.6238
vn 0.9342 -0.2747 0.2276
vn 0.9369 -0.2834 -0.2047
vn 0.9378 -0.2679 -0.2207
vn 0.5891 -0.7540 0.2906
vn 0.5978 -0.5899 0.5427
vn 0.4102 -0.5916 0.6941
vn 0.8830 -0.0631 0.4651
vn 0.7502 0.4264 0.5053
vn 0.3795 0.9249 -0.0237
vn 0.8854 0.4624 -0.0470
vn 0.9980 -0.0314 -0.0550
vn 0.9980 0.0079 0.0629
vn 0.8471 0.5255 -0.0785
vn 0.2841 0.9470 -0.1500
vn 0.0000 0.9995 -0.0314
vn -0.3794 0.9249 -0.0237
vn -0.7502 0.4264 0.5054
vn -0.8854 0.4624 -0.0470
vn -0.8471 0.5255 -0.0784
vn -0.2841 0.9470 -0.1499
vn 0.0000 0.9975 -0.0707
vn 0.0000 0.9997 -0.0235
vn -0.3862 0.9223 0.0158
vn -0.8121 0.5519 0.1892
vn -0.3157 0.9313 0.1815
vn -0.0000 0.9849 0.1733
vn 0.3862 0.9223 0.0158
vn 0.8122 0.5519 0.1892
vn 0.9806 0.0079 0.1961
vn 0.8639 0.5026 0.0314
vn 0.3157 0.9313 0.1815
vn 0.0000 0.9754 0.2203
vn -0.3622 0.9056 0.2205
vn -0.3457 0.9350 -0.0786
vn -0.8086 0.5808 -0.0942
vn -0.6049 0.6835 -0.4085
vn 0.0000 0.9963 -0.0864
vn 0.3457 0.9350 -0.0786
vn 0.6049 0.6835 -0.4085
vn 0.8086 0.5808 -0.0942
vn 0.3622 0.9056 0.2205
vn 0.8750 0.4809 0.0552
vn 0.9849 0.1733 -0.0001
vn 0.7423 0.2448 -0.6238
vn 0.5681 -0.2052 -0.7970
vn 0.2444 0.0000 -0.9697
vn 0.7247 -0.0709 -0.6854
vn 0.9975 -0.0314 0.0628
vn 0.9988 -0.0473 -0.0158
vn 0.9863 -0.0473 -0.1578
vn 0.8699 -0.4745 0.1344
vn 0.8920 -0.4027 -0.2052
vn 0.8187 -0.2755 -0.5038
vn 0.7805 -0.2444 0.5754
vn 0.0865 -0.4951 0.8645
vn 0.0157 -0.3468 0.9378
vn 0.0158 -0.2127 0.9770
vn 0.8489 -0.2044 0.4874
vn 0.8255 -0.2042 -0.5262
vn 0.0157 -0.4090 -0.9124
vn 0.2603 -0.8915 -0.3708
vn 0.4181 -0.9072 0.0473
vn 0.8109 -0.4881 -0.3228
vn 0.0395 -0.9879 0.1501
vn 0.2984 -0.2278 0.9268
vn 0.8338 -0.2989 0.4641
vn 0.9686 -0.2441 0.0472
vn 0.9042 -0.0943 -0.4167
vn 0.1731 0.2203 -0.9599
vn 0.1258 -0.2202 -0.9673
vn 0.0000 0.9900 -0.1414
vn -0.7423 0.2448 -0.6238
vn -0.5681 -0.2051 -0.7970
vn -0.2444 0.0000 -0.9697
vn -0.7248 -0.0709 -0.6854
vn -0.9849 0.1733 -0.0001
vn -0.8751 0.4809 0.0552
vn -0.8639 0.5026 0.0315
vn -0.9806 0.0080 0.1960
vn -0.9863 -0.0473 -0.1578
vn -0.9988 -0.0472 -0.0157
vn -0.9975 -0.0314 0.0629
vn -0.9667 -0.2515 0.0472
vn -0.8338 -0.2989 0.4641
vn -0.2985 -0.2278 0.9268
vn -0.0395 -0.9879 0.1502
vn -0.8109 -0.4881 -0.3228
vn -0.8699 -0.4745 0.1344
vn -0.9980 0.0079 0.0629
vn -0.9980 -0.0314 -0.0550
vn -0.8830 -0.0631 0.4651
vn -0.9129 0.1338 0.3856
vn -0.7422 -0.2448 0.6238
vn -0.4102 -0.5916 0.6941
vn -0.9342 -0.2748 0.2277
vn -0.9369 -0.2834 -0.2047
vn -0.9378 -0.2679 -0.2206
vn -0.5990 -0.7488 0.2838
vn -0.5978 -0.5900 0.5427
vn -0.0865 -0.4951 0.8645
vn -0.7809 -0.2603 0.5679
vn -0.8207 -0.3078 -0.4814
vn -0.8921 -0.4026 -0.2053
vn -0.2603 -0.8915 -0.3708
vn -0.4181 -0.9072 0.0473
vn -0.3848 -0.8559 -0.3455
vn 0.0316 -0.6786 0.7338
vn -0.7155 -0.5425 0.4403
vn -0.9302 -0.3547 0.0946
vn -0.9041 -0.0943 -0.4167
vn -0.1731 0.2203 -0.9599
vn -0.1258 -0.2202 -0.9673
vn -0.5756 -0.8122 0.0946
vn 0.3848 -0.8559 -0.3455
vn -0.0236 -0.3467 0.9377
vn -0.0000 -0.2052 0.9787
vn -0.8337 -0.2438 0.4955
vn -0.8078 -0.2510 -0.5333
vn -0.0236 -0.4089 -0.9123
vn 0.0079 -0.1260 -0.9920
vn -0.7946 -0.1967 -0.5743
vn 0.0552 -0.0868 -0.9947
vn -0.7815 0.1973 -0.5919
vn -0.8130 0.3157 0.4893
vn -0.8481 -0.1099 0.5183
vn 0.0552 0.1025 0.9932
vn -0.0158 0.2444 0.9696
vn 0.0314 0.5972 0.8015
vn -0.7727 0.5677 0.2838
vn -0.7708 0.3461 -0.5348
vn 0.1103 -0.0551 -0.9924
vn 0.0707 0.0314 -0.9970
vn -0.0315 -0.6786 0.7338
vn 0.7160 -0.5350 0.4485
vn 0.6473 -0.7104 0.2763
vn 0.9350 -0.3457 0.0786
vn 0.8541 0.2451 -0.4587
vn -0.0315 0.7561 -0.6537
vn 0.6161 0.3554 -0.7029
vn 0.0790 0.3552 -0.9314
vn 0.8199 -0.2207 -0.5282
vn 0.9612 -0.1654 -0.2206
vn 0.8924 -0.3791 0.2448
vn -0.0472 -0.5739 0.8176
vn 0.0315 -0.8810 0.4720
vn 0.9140 0.1970 0.3546
vn -0.0079 0.5122 0.8588
vn -0.0314 0.5972 0.8015
vn 0.8253 0.4637 0.3223
vn 0.8843 -0.1500 -0.4421
vn 0.0710 -0.2289 -0.9709
vn -0.0079 0.1104 -0.9939
vn 0.8597 0.1183 -0.4969
vn -0.0079 0.1733 -0.9848
vn -0.8674 0.3232 -0.3784
vn -0.9548 -0.2920 -0.0552
vn -0.7268 0.2686 -0.6321
vn 0.0474 0.7738 -0.6317
vn 0.0000 0.3468 -0.9379
vn -0.7870 -0.3069 -0.5352
vn -0.8639 -0.4319 0.2592
vn -0.6599 -0.6992 0.2750
vn -0.0316 -0.8843 0.4658
vn 0.0472 -0.5739 0.8176
vn 0.0237 0.5062 0.8621
vn -0.9049 0.2361 0.3541
vn -0.8882 -0.1021 -0.4480
vn -0.0710 -0.2289 -0.9709
vn 0.0395 0.1026 -0.9939
vn -0.8551 0.1569 -0.4942
vn -0.0078 0.1810 -0.9835
vn -0.8187 0.4802 0.3149
vn 0.8516 0.3706 0.3706
vn 0.9304 0.1575 0.3311
vn 0.9618 -0.0552 0.2681
vn 0.7956 -0.5435 0.2678
vn 0.8316 -0.3295 0.4471
vn -0.0395 -0.9879 0.1501
vn 0.8185 -0.5745 -0.0079
vn 0.9323 -0.1896 -0.3081
vn 0.8782 0.3956 -0.2690
vn 0.7577 0.3473 -0.5525
vn 0.8241 -0.1020 -0.5572
vn -0.1259 -0.2202 -0.9673
vn 0.0078 -0.1337 -0.9910
vn 0.7956 -0.2127 -0.5672
vn -0.0474 -0.0869 -0.9951
vn 0.7856 0.1885 -0.5893
vn 0.8164 0.2983 0.4945
vn 0.8474 -0.1177 0.5178
vn -0.0474 0.0947 0.9944
vn 0.0157 0.2518 0.9677
vn 0.7727 0.5677 0.2838
vn 0.7708 0.3461 -0.5348
vn -0.1180 -0.0551 -0.9915
vn -0.0706 0.0314 -0.9970
vn 0.9087 -0.2054 -0.3635
vn 0.8523 -0.1026 -0.5129
vn -0.0079 0.1809 -0.9835
vn 0.0395 0.1025 -0.9939
vn -0.8464 0.3919 0.3605
vn -0.9213 0.2047 0.3307
vn -0.9634 -0.0632 0.2606
vn -0.7922 -0.5490 0.2667
vn -0.0316 -0.6786 0.7338
vn -0.8315 -0.3295 0.4472
vn 0.0395 -0.9879 0.1502
vn -0.8185 -0.5745 -0.0079
vn -0.9323 -0.1896 -0.3081
vn -0.8883 0.3616 -0.2831
vn -0.7532 0.3372 -0.5648
vn -0.8241 -0.1020 -0.5572
vn 0.0789 0.3552 -0.9314
vn 0.1731 0.2203 -0.9600
vn -0.9152 -0.1578 -0.3709
vn -0.8572 -0.0629 -0.5112
vn -0.0864 -0.4951 0.8645
vn 0.5596 -0.4414 0.7015
vn 0.8814 -0.0079 0.4722
vn 0.7477 -0.3463 -0.5667
vn 0.8634 0.0471 -0.5023
vn -0.2604 -0.8915 -0.3708
vn 0.8573 0.1105 0.5028
vn 0.7974 0.4422 0.4106
vn 0.8118 0.4965 0.3074
vn 0.7643 0.3467 -0.5437
vn 0.7892 0.2683 -0.5524
vn 0.8403 0.0157 -0.5419
vn 0.0706 0.0314 -0.9970
vn 0.0158 -0.3467 0.9378
vn -0.5607 -0.4502 0.6950
vn -0.8754 -0.0473 0.4811
vn -0.8555 0.1256 0.5023
vn -0.7972 0.4499 0.4026
vn 0.0157 0.2517 0.9677
vn -0.8118 0.4965 0.3074
vn -0.7643 0.3467 -0.5437
vn -0.7858 0.2829 -0.5500
vn -0.8400 0.0314 -0.5417
vn -0.8589 -0.0079 -0.5121
vn -0.7432 -0.3874 -0.5455
vn 0.0079 -0.1337 -0.9910
vn 0.2604 -0.8915 -0.3708
vn 0.0000 0.9899 -0.1414
vn 0.7975 0.5843 -0.1500
vn 0.0000 0.9947 -0.1026
vn -0.7975 0.5843 -0.1500
vn -0.8323 -0.5339 -0.1492
vn -0.5681 -0.2051 -0.7969
vn -0.0000 -0.9939 -0.1105
vn 0.0000 -0.9997 -0.0236
vn -0.8493 -0.5269 -0.0314
vn -0.8117 0.5832 -0.0315
vn 0.0000 0.9997 -0.0236
vn 0.8117 0.5832 -0.0315
vn 0.8493 -0.5269 -0.0315
vn 0.8323 -0.5339 -0.1492
vn 0.5682 -0.2052 -0.7969
vn -0.0000 -1.0000 -0.0078
vn -0.8497 -0.5272 -0.0079
vn -0.8184 0.5744 -0.0157
vn 0.0000 1.0000 -0.0079
vn 0.8184 0.5744 -0.0157
vn 0.8497 -0.5272 -0.0079
vn 0.0000 -0.9985 -0.0550
vn -0.8512 -0.5201 -0.0709
vn -0.8201 0.5677 -0.0710
vn 0.0000 0.9985 -0.0551
vn 0.8201 0.5678 -0.0710
vn 0.8512 -0.5201 -0.0709
vn 0.0000 -0.9052 -0.4251
vn -0.7723 -0.4570 -0.4413
vn -0.7416 0.5049 -0.4418
vn 0.0000 0.9125 -0.4091
vn 0.7416 0.5049 -0.4418
vn 0.7723 -0.4570 -0.4413
vn -0.0000 0.0079 -1.0000
vn 0.0000 -0.3930 -0.9195
vn -0.0000 -0.3930 -0.9196
vn -0.0394 0.0158 -0.9991
vn -0.0472 -0.0314 -0.9984
vn -0.0000 -0.0471 -0.9989
vn -0.0000 0.1657 -0.9862
vn 0.0393 0.0157 -0.9991
vn 0.0472 -0.0314 -0.9984
vn 0.5681 -0.2051 -0.7970
vn -0.0000 -0.0550 -0.9985
vn -0.0000 -0.4816 -0.8764
vn 0.0000 -0.9541 -0.2996
vn -0.0000 -0.9379 -0.3468
vn 0.0000 -0.9989 0.0472
vn -0.0000 -0.9980 0.0629
vn 0.0000 -0.9715 0.2370
vn 0.0157 -0.7491 0.6623
vn -0.0000 -0.8284 0.5602
vn -0.0000 -0.7227 0.6912
vn -0.5978 -0.5900 0.5428
vn 0.0000 -0.7031 0.7111
vn -0.0236 -0.8675 0.4969
vn 0.0079 -0.9696 0.2444
vn -0.5980 -0.7790 0.1888
vn 0.0000 -0.9888 0.1492
vn 0.5980 -0.7790 0.1888
vn 0.5667 -0.8185 0.0944
vn 0.5978 -0.5900 0.5427
vn -0.0158 -0.7490 0.6623
vn -0.0000 -0.9737 0.2277
vn -0.5526 -0.7341 0.3947
vn -0.3313 -0.8676 0.3707
vn 0.0000 -0.5656 0.8247
vn 0.3313 -0.8676 0.3707
vn 0.5526 -0.7341 0.3947
vn -0.0000 -0.9317 0.3632
vn -0.7708 0.3461 -0.5349
vn -0.7362 -0.2771 -0.6175
vn -0.0158 -0.3467 -0.9378
vn 0.7802 -0.2049 -0.5910
vn 0.8057 0.1659 0.5687
vn -0.0314 0.2276 0.9732
vn -0.7727 0.5677 0.2839
vn -0.8573 0.1652 0.4876
vn -0.0237 -0.7109 0.7029
vn 0.6355 -0.6982 0.3295
vn 0.0157 -0.8896 -0.4566
vn -0.4785 -0.8314 -0.2824
vn -0.8057 0.1659 0.5687
vn -0.7802 -0.2049 -0.5910
vn 0.0314 0.2276 0.9732
vn 0.7727 0.5677 0.2839
vn 0.8573 0.1652 0.4876
vn 0.7708 0.3461 -0.5349
vn 0.7362 -0.2771 -0.6175
vn 0.0158 -0.3467 -0.9378
vn 0.4785 -0.8314 -0.2824
vn -0.8657 0.1416 0.4801
vn -0.8179 -0.2124 -0.5347
vn -0.0079 0.1810 -0.9835
vn 0.0314 -0.3928 -0.9191
vn 0.8523 -0.1026 -0.5130
vn 0.8255 -0.1808 -0.5347
vn 0.8246 0.1335 0.5498
vn -0.0392 0.1489 0.9881
vn -0.6648 -0.7203 -0.1979
vn 0.6076 -0.7733 -0.1815
vn 0.6308 -0.7018 0.3312
vn -0.8246 0.1334 0.5498
vn -0.8465 0.3919 0.3605
vn 0.0392 0.1490 0.9881
vn 0.8657 0.1416 0.4801
vn 0.8179 -0.2123 -0.5348
vn -0.0314 -0.3928 -0.9191
vn -0.8256 -0.1808 -0.5346
vn -0.6308 -0.7018 0.3312
vn -0.6076 -0.7733 -0.1815
usemtl Cat_Orange
s 1
f 1/1/1 2/2/2 3/3/3
f 2/2/2 1/1/1 4/4/4
f 2/2/2 4/4/4 5/5/5
f 5/5/5 6/6/6 2/2/2
f 7/7/7 8/8/8 9/9/9
f 10/10/10 9/9/9 8/8/8
f 11/11/11 9/9/9 10/10/10
f 9/9/9 11/11/11 12/12/12
f 13/13/13 14/14/14 15/15/15
f 16/16/16 14/14/14 13/13/13
f 14/14/14 16/16/16 17/17/17
f 18/18/18 15/15/15 14/14/14
f 19/19/19 20/20/20 21/21/21
f 20/20/20 19/19/19 22/22/22
f 19/19/19 21/21/21 23/23/23
f 23/23/23 24/24/24 19/19/19
f 25/25/25 26/26/26 27/27/27
f 25/25/25 28/28/28 26/26/26
f 29/29/29 26/26/26 28/28/28
f 28/28/28 30/30/30 29/29/29
f 31/31/31 29/29/29 30/30/30
f 32/32/32 33/33/33 34/34/34
f 35/35/35 32/32/32 34/34/34
f 32/32/32 35/35/35 36/36/36
f 37/37/37 36/36/36 35/35/35
f 36/36/36 37/37/37 38/38/38
f 39/39/39 40/40/40 41/41/25
f 40/40/40 39/39/39 42/42/41
f 42/42/41 43/43/42 40/40/40
f 43/43/42 42/42/41 44/44/43
f 45/45/27 39/39/39 41/41/25
f 46/46/44 47/47/34 48/48/45
f 48/48/45 47/47/34 49/49/46
f 48/48/45 50/50/47 46/46/44
f 51/51/37 46/46/44 50/50/47
f 50/50/47 52/52/48 51/51/37
f 53/53/49 54/54/50 55/55/39
f 54/54/50 53/53/49 56/56/51
f 57/57/46 54/54/50 56/56/51
f 54/54/50 57/57/46 58/58/32
f 56/56/51 59/59/52 57/57/46
f 59/59/52 60/60/53 57/57/46
f 60/60/53 61/61/54 57/57/46
f 61/61/54 60/60/53 62/62/47
f 63/63/55 62/62/47 60/60/53
f 60/60/53 64/64/56 63/63/55
f 64/64/56 60/60/53 65/65/57
f 65/65/57 60/60/53 59/59/52
f 66/66/58 65/65/57 59/59/52
f 64/64/56 65/65/57 66/66/58
f 64/64/56 66/66/58 67/67/59
f 66/66/58 68/68/60 67/67/59
f 68/68/60 66/66/58 69/69/61
f 66/66/58 59/59/52 69/69/61
f 69/69/61 59/59/52 70/70/62
f 59/59/52 56/56/51 70/70/62
f 56/56/51 71/71/63 70/70/62
f 71/71/63 56/56/51 53/53/49
f 72/72/64 71/71/63 53/53/49
f 73/73/65 72/72/64 53/53/49
f 72/72/64 73/73/65 74/74/29
f 74/74/29 75/75/43 72/72/64
f 76/76/66 72/72/64 75/75/43
f 72/72/64 76/76/66 77/77/67
f 72/72/64 77/77/67 71/71/63
f 77/77/67 78/78/68 71/71/63
f 77/77/67 76/76/66 78/78/68
f 78/78/68 76/76/66 79/79/69
f 80/80/70 78/78/68 79/79/69
f 78/78/68 80/80/70 81/81/71
f 71/71/63 78/78/68 81/81/71
f 71/71/63 81/81/71 70/70/62
f 82/82/72 70/70/62 81/81/71
f 82/82/72 81/81/71 80/80/70
f 82/82/72 80/80/70 83/83/73
f 83/83/73 80/80/70 84/84/74
f 84/84/74 80/80/70 85/85/75
f 85/85/75 80/80/70 79/79/69
f 85/85/75 79/79/69 76/76/66
f 86/86/76 85/85/75 76/76/66
f 86/86/76 84/84/74 85/85/75
f 84/84/74 86/86/76 87/87/77
f 83/83/73 84/84/74 87/87/77
f 82/82/72 83/83/73 87/87/77
f 87/87/77 70/70/62 82/82/72
f 70/70/62 87/87/77 88/88/78
f 89/89/79 70/70/62 88/88/78
f 70/70/62 89/89/79 90/90/80
f 70/70/62 90/90/80 69/69/61
f 69/69/61 90/90/80 68/68/60
f 68/68/60 90/90/80 91/91/81
f 91/91/81 90/90/80 89/89/79
f 92/92/82 91/91/81 89/89/79
f 68/68/60 91/91/81 92/92/82
f 68/68/60 92/92/82 93/93/83
f 68/68/60 93/93/83 67/67/59
f 67/67/59 93/93/83 64/64/56
f 93/93/83 94/94/84 64/64/56
f 92/92/82 94/94/84 93/93/83
f 94/94/84 92/92/82 89/89/79
f 95/95/85 94/94/84 89/89/79
f 94/94/84 95/95/85 96/96/86
f 94/94/84 96/96/86 64/64/56
f 97/97/87 64/64/56 96/96/86
f 97/97/87 98/98/88 64/64/56
f 98/98/88 99/99/89 64/64/56
f 63/63/55 64/64/56 99/99/89
f 100/100/90 63/63/55 99/99/89
f 76/76/66 75/75/43 101/101/91
f 75/75/43 102/102/92 101/101/91
f 101/101/91 103/103/93 76/76/66
f 103/103/93 104/104/94 76/76/66
f 76/76/66 104/104/94 105/105/95
f 105/105/95 86/86/76 76/76/66
f 106/106/96 86/86/76 105/105/95
f 86/86/76 106/106/96 87/87/77
f 106/106/96 107/107/97 87/87/77
f 107/107/97 108/108/98 87/87/77
f 87/87/77 108/108/98 88/88/78
f 108/108/98 89/89/79 88/88/78
f 108/108/98 109/109/99 89/89/79
f 109/109/99 95/95/85 89/89/79
f 95/95/85 109/109/99 110/110/100
f 96/96/86 95/95/85 110/110/100
f 96/96/86 110/110/100 111/111/101
f 111/111/101 97/97/87 96/96/86
f 97/97/87 111/111/101 112/112/102
f 97/97/87 112/112/102 113/113/103
f 98/98/88 97/97/87 113/113/103
f 108/108/98 114/114/104 109/109/99
f 114/114/104 108/108/98 107/107/97
f 115/115/105 114/114/104 107/107/97
f 115/115/105 107/107/97 116/116/106
f 107/107/97 106/106/96 116/116/106
f 106/106/96 105/105/95 116/116/106
f 116/116/106 105/105/95 117/117/107
f 104/104/94 117/117/107 105/105/95
f 117/117/107 104/104/94 118/118/108
f 118/118/108 104/104/94 119/119/109
f 104/104/94 103/103/93 119/119/109
f 115/115/105 116/116/106 117/117/107
f 109/109/99 120/120/110 110/110/100
f 114/114/104 120/120/110 109/109/99
f 110/110/100 120/120/110 111/111/101
f 121/121/39 122/122/50 123/123/111
f 124/124/112 123/123/111 122/122/50
f 125/125/113 124/124/112 122/122/50
f 122/122/50 126/126/32 125/125/113
f 127/127/90 125/125/113 126/126/32
f 128/128/89 125/125/113 127/127/90
f 125/125/113 128/128/89 129/129/114
f 125/125/113 129/129/114 130/130/115
f 130/130/115 131/131/116 125/125/113
f 124/124/112 125/125/113 131/131/116
f 131/131/116 132/132/117 124/124/112
f 132/132/117 133/133/118 124/124/112
f 123/123/111 124/124/112 133/133/118
f 133/133/118 134/134/119 123/123/111
f 135/135/120 123/123/111 134/134/119
f 136/136/91 123/123/111 135/135/120
f 123/123/111 136/136/91 137/137/92
f 123/123/111 137/137/92 121/121/39
f 133/133/118 132/132/117 138/138/121
f 139/139/50 138/138/121 132/132/117
f 140/140/122 139/139/50 132/132/117
f 132/132/117 131/131/116 140/140/122
f 141/141/123 140/140/122 131/131/116
f 131/131/116 130/130/115 141/141/123
f 142/142/124 141/141/123 130/130/115
f 143/143/125 142/142/124 130/130/115
f 130/130/115 144/144/126 143/143/125
f 144/144/126 130/130/115 129/129/114
f 129/129/114 145/145/127 144/144/126
f 145/145/127 129/129/114 128/128/89
f 144/144/126 145/145/127 146/146/128
f 146/146/128 143/143/125 144/144/126
f 143/143/125 146/146/128 147/147/129
f 143/143/125 147/147/129 148/148/130
f 142/142/124 143/143/125 148/148/130
f 148/148/130 149/149/131 142/142/124
f 142/142/124 149/149/131 141/141/123
f 150/150/132 141/141/123 149/149/131
f 141/141/123 150/150/132 140/140/122
f 151/151/133 140/140/122 150/150/132
f 150/150/132 152/152/134 151/151/133
f 152/152/134 150/150/132 149/149/131
f 149/149/131 153/153/135 152/152/134
f 154/154/136 152/152/134 153/153/135
f 152/152/134 154/154/136 155/155/137
f 155/155/137 151/151/133 152/152/134
f 151/151/133 155/155/137 156/156/138
f 156/156/138 157/157/139 151/151/133
f 140/140/122 151/151/133 157/157/139
f 157/157/139 139/139/50 140/140/122
f 139/139/50 157/157/139 138/138/121
f 158/158/140 138/138/121 157/157/139
f 138/138/121 158/158/140 159/159/141
f 160/160/142 159/159/141 158/158/140
f 158/158/140 161/161/143 160/160/142
f 161/161/143 158/158/140 162/162/144
f 157/157/139 162/162/144 158/158/140
f 162/162/144 157/157/139 163/163/145
f 157/157/139 156/156/138 163/163/145
f 164/164/146 163/163/145 156/156/138
f 163/163/145 164/164/146 162/162/144
f 164/164/146 165/165/147 162/162/144
f 162/162/144 165/165/147 161/161/143
f 165/165/147 166/166/148 161/161/143
f 166/166/148 165/165/147 167/167/149
f 167/167/149 165/165/147 168/168/150
f 165/165/147 164/164/146 168/168/150
f 164/164/146 169/169/151 168/168/150
f 169/169/151 164/164/146 156/156/138
f 169/169/151 156/156/138 155/155/137
f 170/170/152 169/169/151 155/155/137
f 170/170/152 155/155/137 154/154/136
f 171/171/153 170/170/152 154/154/136
f 170/170/152 171/171/153 172/172/154
f 170/170/152 172/172/154 173/173/155
f 169/169/151 170/170/152 173/173/155
f 169/169/151 173/173/155 168/168/150
f 168/168/150 173/173/155 174/174/156
f 167/167/149 168/168/150 174/174/156
f 175/175/157 167/167/149 174/174/156
f 174/174/156 176/176/158 175/175/157
f 177/177/159 175/175/157 176/176/158
f 177/177/159 176/176/158 178/178/160
f 179/179/161 178/178/160 176/176/158
f 176/176/158 174/174/156 179/179/161
f 174/174/156 180/180/162 179/179/161
f 181/181/163 179/179/161 180/180/162
f 180/180/162 182/182/164 181/181/163
f 183/183/165 182/182/164 180/180/162
f 180/180/162 174/174/156 183/183/165
f 173/173/155 183/183/165 174/174/156
f 173/173/155 172/172/154 183/183/165
f 172/172/154 184/184/166 183/183/165
f 182/182/164 183/183/165 184/184/166
f 185/185/167 182/182/164 184/184/166
f 182/182/164 185/185/167 186/186/168
f 186/186/168 181/181/163 182/182/164
f 187/187/169 181/181/163 186/186/168
f 186/186/168 188/188/170 187/187/169
f 188/188/170 186/186/168 189/189/171
f 189/189/171 186/186/168 185/185/167
f 189/189/171 185/185/167 190/190/172
f 190/190/172 185/185/167 191/191/173
f 185/185/167 184/184/166 191/191/173
f 192/192/174 191/191/173 184/184/166
f 172/172/154 192/192/174 184/184/166
f 171/171/153 192/192/174 172/172/154
f 171/171/153 193/193/175 192/192/174
f 193/193/175 171/171/153 154/154/136
f 193/193/175 154/154/136 194/194/176
f 195/195/177 194/194/176 154/154/136
f 154/154/136 153/153/135 195/195/177
f 196/196/178 195/195/177 153/153/135
f 153/153/135 149/149/131 196/196/178
f 197/197/179 196/196/178 149/149/131
f 197/197/179 149/149/131 148/148/130
f 196/196/178 197/197/179 198/198/180
f 198/198/180 199/199/181 196/196/178
f 199/199/181 200/200/182 196/196/178
f 195/195/177 196/196/178 200/200/182
f 200/200/182 201/201/183 195/195/177
f 202/202/184 195/195/177 201/201/183
f 195/195/177 202/202/184 194/194/176
f 194/194/176 202/202/184 203/203/185
f 193/193/175 194/194/176 203/203/185
f 204/204/186 193/193/175 203/203/185
f 193/193/175 204/204/186 205/205/187
f 192/192/174 193/193/175 205/205/187
f 192/192/174 205/205/187 191/191/173
f 205/205/187 206/206/188 191/191/173
f 206/206/188 207/207/189 191/191/173
f 207/207/189 208/208/190 191/191/173
f 208/208/190 209/209/191 191/191/173
f 209/209/191 190/190/172 191/191/173
f 190/190/172 209/209/191 189/189/171
f 189/189/171 209/209/191 210/210/192
f 211/211/193 189/189/171 210/210/192
f 189/189/171 211/211/193 212/212/194
f 212/212/194 188/188/170 189/189/171
f 179/179/161 181/181/163 213/213/195
f 178/178/160 179/179/161 213/213/195
f 178/178/160 214/214/196 177/177/159
f 178/178/160 215/215/197 214/214/196
f 216/216/198 214/214/196 215/215/197
f 214/214/196 216/216/198 217/217/199
f 214/214/196 217/217/199 218/218/200
f 218/218/200 177/177/159 214/214/196
f 177/177/159 218/218/200 219/219/201
f 175/175/157 177/177/159 219/219/201
f 219/219/201 220/220/202 175/175/157
f 220/220/202 167/167/149 175/175/157
f 220/220/202 166/166/148 167/167/149
f 221/221/203 166/166/148 220/220/202
f 222/222/204 221/221/203 220/220/202
f 222/222/204 220/220/202 219/219/201
f 223/223/205 222/222/204 219/219/201
f 219/219/201 218/218/200 223/223/205
f 218/218/200 224/224/206 223/223/205
f 218/218/200 217/217/199 224/224/206
f 225/225/207 224/224/206 217/217/199
f 224/224/206 225/225/207 223/223/205
f 225/225/207 226/226/208 223/223/205
f 226/226/208 227/227/209 223/223/205
f 227/227/209 228/228/210 223/223/205
f 228/228/210 229/229/211 223/223/205
f 229/229/211 222/222/204 223/223/205
f 230/230/212 222/222/204 229/229/211
f 230/230/212 221/221/203 222/222/204
f 221/221/203 230/230/212 231/231/213
f 166/166/148 221/221/203 231/231/213
f 161/161/143 166/166/148 231/231/213
f 231/231/213 160/160/142 161/161/143
f 160/160/142 231/231/213 232/232/214
f 232/232/214 233/233/215 160/160/142
f 159/159/141 160/160/142 233/233/215
f 234/234/216 159/159/141 233/233/215
f 159/159/141 234/234/216 138/138/121
f 138/138/121 234/234/216 133/133/118
f 134/134/119 133/133/118 234/234/216
f 234/234/216 235/235/217 134/134/119
f 233/233/215 235/235/217 234/234/216
f 233/233/215 236/236/218 235/235/217
f 237/237/219 235/235/217 236/236/218
f 235/235/217 237/237/219 134/134/119
f 238/238/220 134/134/119 237/237/219
f 134/134/119 238/238/220 135/135/120
f 239/239/221 135/135/120 238/238/220
f 135/135/120 239/239/221 136/136/91
f 239/239/221 238/238/220 240/240/222
f 237/237/219 240/240/222 238/238/220
f 240/240/222 237/237/219 241/241/223
f 241/241/223 237/237/219 236/236/218
f 233/233/215 242/242/224 236/236/218
f 243/243/225 242/242/224 233/233/215
f 233/233/215 232/232/214 243/243/225
f 244/244/226 243/243/225 232/232/214
f 232/232/214 231/231/213 244/244/226
f 245/245/227 244/244/226 231/231/213
f 231/231/213 230/230/212 245/245/227
f 245/245/227 230/230/212 246/246/228
f 230/230/212 247/247/229 246/246/228
f 247/247/229 230/230/212 229/229/211
f 247/247/229 229/229/211 248/248/230
f 248/248/230 229/229/211 228/228/210
f 249/249/231 228/228/210 227/227/209
f 227/227/209 250/250/232 249/249/231
f 250/250/232 227/227/209 226/226/208
f 226/226/208 225/225/207 250/250/232
f 225/225/207 251/251/233 250/250/232
f 225/225/207 252/252/234 251/251/233
f 225/225/207 217/217/199 252/252/234
f 253/253/235 252/252/234 217/217/199
f 217/217/199 254/254/236 253/253/235
f 216/216/198 254/254/236 217/217/199
f 255/255/237 239/239/221 240/240/222
f 145/145/127 256/256/103 146/146/128
f 205/205/187 257/257/238 206/206/188
f 205/205/187 204/204/186 257/257/238
f 242/242/224 243/243/225 258/258/239
f 259/259/240 258/258/239 243/243/225
f 260/260/241 259/259/240 243/243/225
f 243/243/225 244/244/226 260/260/241
f 261/261/242 260/260/241 244/244/226
f 244/244/226 262/262/243 261/261/242
f 262/262/243 244/244/226 245/245/227
f 262/262/243 245/245/227 246/246/228
f 262/262/243 263/263/244 261/261/242
f 261/261/242 263/263/244 264/264/245
f 263/263/244 265/265/246 264/264/245
f 264/264/245 265/265/246 266/266/247
f 266/266/247 267/267/248 264/264/245
f 268/268/249 264/264/245 267/267/248
f 264/264/245 268/268/249 261/261/242
f 260/260/241 261/261/242 268/268/249
f 268/268/249 269/269/250 260/260/241
f 269/269/250 259/259/240 260/260/241
f 270/270/251 269/269/250 268/268/249
f 267/267/248 270/270/251 268/268/249
f 271/271/252 270/270/251 267/267/248
f 272/272/253 271/271/252 267/267/248
f 267/267/248 266/266/247 272/272/253
f 273/273/254 272/272/253 266/266/247
f 266/266/247 274/274/255 273/273/254
f 265/265/246 274/274/255 266/266/247
f 274/274/255 275/275/256 273/273/254
f 206/206/188 276/276/257 207/207/189
f 277/277/258 207/207/189 276/276/257
f 207/207/189 277/277/258 208/208/190
f 209/209/191 208/208/190 277/277/258
f 278/278/259 209/209/191 277/277/258
f 209/209/191 278/278/259 279/279/260
f 279/279/260 210/210/192 209/209/191
f 280/280/261 210/210/192 279/279/260
f 211/211/193 210/210/192 280/280/261
f 211/211/193 280/280/261 281/281/262
f 282/282/263 281/281/262 280/280/261
f 281/281/262 282/282/263 283/283/264
f 283/283/264 282/282/263 284/284/265
f 284/284/265 282/282/263 285/285/266
f 282/282/263 280/280/261 285/285/266
f 285/285/266 280/280/261 279/279/260
f 279/279/260 286/286/267 285/285/266
f 278/278/259 286/286/267 279/279/260
f 287/287/268 286/286/267 278/278/259
f 288/288/269 287/287/268 278/278/259
f 277/277/258 288/288/269 278/278/259
f 277/277/258 276/276/257 288/288/269
f 285/285/266 286/286/267 284/284/265
f 284/284/265 286/286/267 289/289/270
f 290/290/271 289/289/270 286/286/267
f 287/287/268 290/290/271 286/286/267
f 290/290/271 291/291/272 289/289/270
f 291/291/272 292/292/273 289/289/270
f 293/293/274 289/289/270 292/292/273
f 289/289/270 293/293/274 284/284/265
f 294/294/275 284/284/265 293/293/274
f 284/284/265 294/294/275 283/283/264
f 293/293/274 295/295/276 294/294/275
f 295/295/276 293/293/274 296/296/277
f 292/292/273 296/296/277 293/293/274
f 296/296/277 297/297/278 295/295/276
f 252/252/234 253/253/235 298/298/279
f 252/252/234 298/298/279 251/251/233
f 298/298/279 299/299/280 251/251/233
f 298/298/279 300/300/281 299/299/280
f 301/301/282 300/300/281 298/298/279
f 298/298/279 253/253/235 301/301/282
f 300/300/281 301/301/282 302/302/283
f 300/300/281 302/302/283 303/303/284
f 300/300/281 303/303/284 299/299/280
f 304/304/285 299/299/280 303/303/284
f 304/304/285 251/251/233 299/299/280
f 304/304/285 305/305/286 251/251/233
f 305/305/286 250/250/232 251/251/233
f 306/306/287 250/250/232 305/305/286
f 249/249/231 250/250/232 306/306/287
f 307/307/288 306/306/287 305/305/286
f 304/304/285 307/307/288 305/305/286
f 308/308/289 307/307/288 304/304/285
f 309/309/290 308/308/289 304/304/285
f 304/304/285 303/303/284 309/309/290
f 310/310/291 309/309/290 303/303/284
f 303/303/284 311/311/292 310/310/291
f 311/311/292 303/303/284 302/302/283
f 312/312/293 310/310/291 311/311/292
f 310/310/291 312/312/293 313/313/294
f 314/314/295 313/313/294 312/312/293
f 313/313/294 315/315/296 310/310/291
f 309/309/290 310/310/291 315/315/296
f 315/315/296 316/316/252 309/309/290
f 316/316/252 308/308/289 309/309/290
f 308/308/289 316/316/252 317/317/297
f 318/318/298 308/308/289 317/317/297
f 319/319/288 308/308/289 318/318/298
f 320/320/299 319/319/288 318/318/298
f 319/319/288 320/320/299 321/321/287
f 321/321/287 320/320/299 322/322/300
f 323/323/231 321/321/287 322/322/300
f 324/324/301 323/323/231 322/322/300
f 325/325/302 323/323/231 324/324/301
f 324/324/301 326/326/303 325/325/302
f 324/324/301 327/327/304 326/326/303
f 327/327/304 324/324/301 328/328/305
f 322/322/300 328/328/305 324/324/301
f 328/328/305 322/322/300 329/329/306
f 320/320/299 329/329/306 322/322/300
f 329/329/306 320/320/299 330/330/307
f 330/330/307 331/331/292 329/329/306
f 332/332/283 329/329/306 331/331/292
f 332/332/283 333/333/282 329/329/306
f 328/328/305 329/329/306 333/333/282
f 333/333/282 334/334/235 328/328/305
f 334/334/235 327/327/304 328/328/305
f 327/327/304 334/334/235 335/335/308
f 336/336/309 202/202/184 201/201/183
f 336/336/309 201/201/183 337/337/310
f 338/338/311 336/336/309 337/337/310
f 338/338/311 337/337/310 339/339/312
f 340/340/313 339/339/312 337/337/310
f 337/337/310 341/341/314 340/340/313
f 341/341/314 337/337/310 201/201/183
f 201/201/183 200/200/182 341/341/314
f 342/342/315 341/341/314 200/200/182
f 199/199/181 342/342/315 200/200/182
f 342/342/315 343/343/316 341/341/314
f 343/343/316 340/340/313 341/341/314
f 343/343/316 344/344/272 340/340/313
f 344/344/272 345/345/317 340/340/313
f 339/339/312 340/340/313 345/345/317
f 345/345/317 346/346/318 339/339/312
f 347/347/319 339/339/312 346/346/318
f 347/347/319 338/338/311 339/339/312
f 348/348/320 347/347/319 346/346/318
f 330/330/307 320/320/299 349/349/321
f 318/318/298 349/349/321 320/320/299
f 349/349/321 318/318/298 350/350/322
f 317/317/297 350/350/322 318/318/298
f 350/350/322 351/351/323 349/349/321
f 352/352/324 349/349/321 351/351/323
f 349/349/321 352/352/324 330/330/307
f 331/331/292 330/330/307 352/352/324
f 291/291/272 290/290/271 353/353/325
f 290/290/271 354/354/326 353/353/325
f 290/290/271 355/355/268 354/354/326
f 355/355/268 356/356/327 354/354/326
f 356/356/327 355/355/268 357/357/269
f 356/356/327 357/357/269 358/358/328
f 357/357/269 359/359/329 358/358/328
f 359/359/329 360/360/330 358/358/328
f 359/359/329 361/361/331 360/360/330
f 362/362/332 360/360/330 361/361/331
f 360/360/330 362/362/332 363/363/333
f 363/363/333 364/364/334 360/360/330
f 364/364/334 358/358/328 360/360/330
f 358/358/328 364/364/334 365/365/335
f 365/365/335 356/356/327 358/358/328
f 356/356/327 365/365/335 366/366/336
f 367/367/275 366/366/336 365/365/335
f 365/365/335 368/368/337 367/367/275
f 369/369/262 368/368/337 365/365/335
f 365/365/335 364/364/334 369/369/262
f 370/370/338 369/369/262 364/364/334
f 363/363/333 370/370/338 364/364/334
f 370/370/338 363/363/333 371/371/194
f 356/356/327 366/366/336 372/372/339
f 372/372/339 354/354/326 356/356/327
f 354/354/326 372/372/339 373/373/340
f 373/373/340 353/353/325 354/354/326
f 374/374/278 373/373/340 372/372/339
f 372/372/339 375/375/276 374/374/278
f 375/375/276 372/372/339 366/366/336
f 366/366/336 367/367/275 375/375/276
f 242/242/341 376/376/239 377/377/342
f 377/377/342 376/376/239 378/378/343
f 378/378/343 379/379/344 377/377/342
f 379/379/344 378/378/343 380/380/345
f 380/380/345 381/381/244 379/379/344
f 381/381/244 382/382/243 379/379/344
f 379/379/344 382/382/243 383/383/346
f 376/376/239 384/384/240 378/378/343
f 378/378/343 384/384/240 385/385/347
f 384/384/240 269/269/250 385/385/347
f 385/385/347 269/269/250 386/386/348
f 269/269/250 387/387/251 386/386/348
f 386/386/348 387/387/251 388/388/349
f 387/387/251 271/271/252 388/388/349
f 388/388/349 389/389/350 386/386/348
f 390/390/351 386/386/348 389/389/350
f 386/386/348 390/390/351 385/385/347
f 391/391/352 385/385/347 390/390/351
f 385/385/347 391/391/352 378/378/343
f 380/380/345 378/378/343 391/391/352
f 391/391/352 392/392/246 380/380/345
f 392/392/246 381/381/244 380/380/345
f 393/393/255 392/392/246 391/391/352
f 390/390/351 393/393/255 391/391/352
f 394/394/353 393/393/255 390/390/351
f 389/389/350 394/394/353 390/390/351
f 395/395/354 197/197/179 396/396/355
f 395/395/354 396/396/355 397/397/356
f 398/398/181 395/395/354 397/397/356
f 398/398/181 397/397/356 399/399/357
f 342/342/315 398/398/181 399/399/357
f 342/342/315 399/399/357 400/400/358
f 401/401/359 342/342/315 400/400/358
f 401/401/359 400/400/358 402/402/360
f 344/344/272 401/401/359 402/402/360
f 403/403/361 402/402/360 400/400/358
f 400/400/358 404/404/362 403/403/361
f 404/404/362 400/400/358 399/399/357
f 399/399/357 405/405/363 404/404/362
f 405/405/363 399/399/357 397/397/356
f 397/397/356 406/406/364 405/405/363
f 397/397/356 407/407/365 406/406/364
f 407/407/365 397/397/356 396/396/355
f 408/408/366 406/406/364 407/407/365
f 409/409/184 408/408/366 407/407/365
f 409/409/184 407/407/365 410/410/367
f 411/411/311 405/405/363 406/406/364
f 408/408/366 411/411/311 406/406/364
f 411/411/311 412/412/319 405/405/363
f 412/412/319 404/404/362 405/405/363
f 412/412/319 413/413/320 404/404/362
f 413/413/320 403/403/361 404/404/362
f 414/414/368 415/415/163 416/416/369
f 417/417/370 414/414/368 416/416/369
f 414/414/368 417/417/370 418/418/371
f 419/419/160 414/414/368 418/418/371
f 418/418/371 420/420/372 419/419/160
f 421/421/373 419/419/160 420/420/372
f 420/420/372 422/422/374 421/421/373
f 422/422/374 420/420/372 423/423/375
f 424/424/376 423/423/375 420/420/372
f 420/420/372 418/418/371 424/424/376
f 425/425/377 424/424/376 418/418/371
f 418/418/371 417/417/370 425/425/377
f 426/426/378 425/425/377 417/417/370
f 427/427/379 426/426/378 417/417/370
f 417/417/370 416/416/369 427/427/379
f 428/428/380 427/427/379 416/416/369
f 416/416/369 429/429/381 428/428/380
f 429/429/381 416/416/369 415/415/163
f 415/415/163 430/430/382 429/429/381
f 422/422/374 429/429/381 430/430/382
f 429/429/381 422/422/374 423/423/375
f 423/423/375 428/428/380 429/429/381
f 428/428/380 423/423/375 431/431/383
f 423/423/375 424/424/376 431/431/383
f 432/432/384 431/431/383 424/424/376
f 424/424/376 425/425/377 432/432/384
f 433/433/385 432/432/384 425/425/377
f 425/425/377 426/426/378 433/433/385
f 434/434/386 433/433/385 426/426/378
f 435/435/387 434/434/386 426/426/378
f 426/426/378 427/427/379 435/435/387
f 436/436/388 435/435/387 427/427/379
f 427/427/379 428/428/380 436/436/388
f 431/431/383 436/436/388 428/428/380
f 436/436/388 431/431/383 437/437/389
f 431/431/383 432/432/384 437/437/389
f 438/438/390 437/437/389 432/432/384
f 432/432/384 433/433/385 438/438/390
f 439/439/391 438/438/390 433/433/385
f 433/433/385 434/434/386 439/439/391
f 440/440/392 439/439/391 434/434/386
f 441/441/393 440/440/392 434/434/386
f 434/434/386 435/435/387 441/441/393
f 442/442/394 441/441/393 435/435/387
f 435/435/387 436/436/388 442/442/394
f 437/437/389 442/442/394 436/436/388
f 442/442/394 437/437/389 443/443/395
f 437/437/389 438/438/390 443/443/395
f 444/444/396 443/443/395 438/438/390
f 438/438/390 439/439/391 444/444/396
f 445/445/397 444/444/396 439/439/391
f 439/439/391 440/440/392 445/445/397
f 446/446/398 445/445/397 440/440/392
f 447/447/399 446/446/398 440/440/392
f 440/440/392 441/441/393 447/447/399
f 448/448/400 447/447/399 441/441/393
f 441/441/393 442/442/394 448/448/400
f 443/443/395 448/448/400 442/442/394
f 443/443/395 449/449/401 448/448/400
f 447/447/399 448/448/400 449/449/401
f 449/449/401 446/446/398 447/447/399
f 446/446/398 449/449/401 445/445/397
f 444/444/396 445/445/397 449/449/401
f 449/449/401 443/443/395 444/444/396
f 422/422/374 450/450/402 421/421/373
f 450/450/402 422/422/374 430/430/382
f 451/451/403 452/452/404 453/453/197
f 454/454/198 453/453/197 452/452/404
f 455/455/405 454/454/198 452/452/404
f 455/455/405 452/452/404 456/456/406
f 457/457/407 456/456/406 452/452/404
f 451/451/403 457/457/407 452/452/404
f 457/457/407 451/451/403 458/458/408
f 456/456/406 457/457/407 458/458/408
f 458/458/408 459/459/409 456/456/406
f 460/460/170 459/459/409 458/458/408
f 461/461/410 460/460/170 458/458/408
f 458/458/408 451/451/403 461/461/410
f 462/462/411 456/456/406 459/459/409
f 456/456/406 462/462/411 455/455/405
f 455/455/405 462/462/411 463/463/412
f 462/462/411 459/459/409 463/463/412
f 463/463/412 459/459/409 464/464/194
f 460/460/170 464/464/194 459/459/409
f 463/463/412 464/464/194 465/465/333
f 463/463/412 465/465/333 466/466/332
f 463/463/412 466/466/332 467/467/413
f 468/468/303 463/463/412 467/467/413
f 469/469/304 463/463/412 468/468/303
f 470/470/236 463/463/412 469/469/304
f 455/455/405 463/463/412 470/470/236
f 470/470/236 454/454/198 455/455/405
f 466/466/332 471/471/331 467/467/413
f 472/472/414 467/467/413 471/471/331
f 467/467/413 472/472/414 473/473/210
f 473/473/210 468/468/303 467/467/413
f 472/472/414 474/474/230 473/473/210
f 472/472/414 475/475/415 474/474/230
f 475/475/415 472/472/414 476/476/238
f 476/476/238 472/472/414 471/471/331
f 477/477/186 475/475/415 476/476/238
f 475/475/415 477/477/186 478/478/416
f 477/477/186 479/479/185 478/478/416
f 480/480/417 478/478/416 479/479/185
f 478/478/416 480/480/417 481/481/346
f 482/482/344 481/481/346 480/480/417
f 480/480/417 483/483/342 482/482/344
f 483/483/342 480/480/417 484/484/418
f 484/484/418 480/480/417 485/485/419
f 485/485/419 486/486/420 484/484/418
f 487/487/218 484/484/418 486/486/420
f 487/487/218 486/486/420 488/488/421
f 489/489/422 488/488/421 486/486/420
f 488/488/421 489/489/422 490/490/222
f 491/491/423 490/490/222 489/489/422
f 490/490/222 491/491/423 492/492/237
f 493/493/424 492/492/237 491/491/423
f 492/492/237 493/493/424 494/494/425
f 495/495/426 494/494/425 493/493/424
f 496/496/427 495/495/426 493/493/424
f 493/493/424 497/497/428 496/496/427
f 497/497/428 493/493/424 491/491/423
f 491/491/423 498/498/128 497/497/428
f 498/498/128 491/491/423 489/489/422
f 489/489/422 499/499/429 498/498/128
f 499/499/429 489/489/422 486/486/420
f 486/486/420 500/500/130 499/499/429
f 501/501/430 500/500/130 486/486/420
f 486/486/420 485/485/419 501/501/430
f 480/480/417 501/501/430 485/485/419
f 480/480/417 502/502/355 501/501/430
f 501/501/430 502/502/355 503/503/179
f 500/500/130 501/501/430 503/503/179
f 496/496/427 504/504/431 495/495/426
f 504/504/431 494/494/425 495/495/426
f 494/494/425 504/504/431 505/505/432
f 505/505/432 504/504/431 506/506/433
f 505/505/432 506/506/433 507/507/105
f 506/506/433 508/508/434 507/507/105
f 509/509/104 507/507/105 508/508/434
f 510/510/110 509/509/104 508/508/434
f 508/508/434 511/511/435 510/510/110
f 511/511/435 512/512/436 510/510/110
f 504/504/431 512/512/436 511/511/435
f 504/504/431 496/496/427 512/512/436
f 511/511/435 513/513/437 504/504/431
f 513/513/437 511/511/435 508/508/434
f 506/506/433 513/513/437 508/508/434
f 513/513/437 506/506/433 504/504/431
f 484/484/418 487/487/218 514/514/224
f 483/483/342 484/484/418 514/514/224
f 475/475/415 515/515/229 474/474/230
f 515/515/229 475/475/415 478/478/416
f 481/481/346 515/515/229 478/478/416
f 479/479/185 516/516/365 480/480/417
f 502/502/355 480/480/417 516/516/365
f 517/517/438 518/518/353 519/519/439
f 518/518/353 520/520/440 519/519/439
f 520/520/440 518/518/353 521/521/350
f 522/522/441 520/520/440 521/521/350
f 521/521/350 523/523/442 522/522/441
f 523/523/442 521/521/350 524/524/349
f 524/524/349 525/525/443 523/523/442
f 525/525/443 524/524/349 526/526/252
f 525/525/443 526/526/252 527/527/444
f 528/528/445 525/525/443 527/527/444
f 527/527/444 517/517/438 528/528/445
f 519/519/439 528/528/445 517/517/438
f 528/528/445 519/519/439 529/529/7
f 529/529/7 530/530/446 528/528/445
f 530/530/446 525/525/443 528/528/445
f 525/525/443 530/530/446 531/531/447
f 523/523/442 525/525/443 531/531/447
f 531/531/447 522/522/441 523/523/442
f 522/522/441 531/531/447 532/532/11
f 532/532/11 533/533/448 522/522/441
f 533/533/448 520/520/440 522/522/441
f 520/520/440 533/533/448 534/534/449
f 519/519/439 520/520/440 534/534/449
f 534/534/449 529/529/7 519/519/439
f 535/535/450 536/536/361 537/537/451
f 536/536/361 535/535/450 538/538/360
f 539/539/452 538/538/360 535/535/450
f 538/538/360 539/539/452 540/540/272
f 540/540/272 539/539/452 541/541/453
f 539/539/452 542/542/454 541/541/453
f 543/543/455 541/541/453 542/542/454
f 542/542/454 544/544/456 543/543/455
f 545/545/320 543/543/455 544/544/456
f 546/546/457 545/545/320 544/544/456
f 545/545/320 546/546/457 536/536/361
f 546/546/457 537/537/451 536/536/361
f 546/546/457 547/547/4 537/537/451
f 547/547/4 546/546/457 548/548/458
f 546/546/457 544/544/456 548/548/458
f 549/549/6 548/548/458 544/544/456
f 544/544/456 542/542/454 549/549/6
f 550/550/19 549/549/6 542/542/454
f 539/539/452 550/550/19 542/542/454
f 550/550/19 539/539/452 551/551/3
f 539/539/452 535/535/450 551/551/3
f 537/537/451 551/551/3 535/535/450
f 551/551/3 537/537/451 552/552/1
f 547/547/4 552/552/1 537/537/451
f 553/553/296 554/554/294 555/555/459
f 556/556/460 555/555/459 554/554/294
f 554/554/294 557/557/461 556/556/460
f 558/558/462 556/556/460 557/557/461
f 557/557/461 559/559/463 558/558/462
f 560/560/464 558/558/462 559/559/463
f 559/559/463 561/561/465 560/560/464
f 561/561/465 559/559/463 562/562/297
f 562/562/297 563/563/466 561/561/465
f 563/563/466 562/562/297 564/564/252
f 563/563/466 564/564/252 553/553/296
f 555/555/459 563/563/466 553/553/296
f 565/565/14 563/563/466 555/555/459
f 566/566/18 565/565/14 555/555/459
f 555/555/459 556/556/460 566/566/18
f 567/567/467 566/566/18 556/556/460
f 556/556/460 558/558/462 567/567/467
f 568/568/13 567/567/467 558/558/462
f 558/558/462 560/560/464 568/568/13
f 569/569/468 568/568/13 560/560/464
f 560/560/464 570/570/469 569/569/468
f 570/570/469 560/560/464 561/561/465
f 561/561/465 563/563/466 570/570/469
f 563/563/466 565/565/14 570/570/469
f 571/571/340 572/572/470 573/573/471
f 574/574/472 573/573/471 572/572/470
f 573/573/471 574/574/472 575/575/272
f 575/575/272 574/574/472 576/576/273
f 574/574/472 577/577/473 576/576/273
f 578/578/277 576/576/273 577/577/473
f 577/577/473 579/579/474 578/578/277
f 580/580/278 578/578/277 579/579/474
f 579/579/474 581/581/475 580/580/278
f 571/571/340 580/580/278 581/581/475
f 581/581/475 582/582/476 571/571/340
f 572/572/470 571/571/340 582/582/476
f 582/582/476 583/583/477 572/572/470
f 574/574/472 572/572/470 583/583/477
f 584/584/19 574/574/472 583/583/477
f 574/574/472 584/584/19 577/577/473
f 584/584/19 585/585/24 577/577/473
f 579/579/474 577/577/473 585/585/24
f 585/585/24 586/586/23 579/579/474
f 581/581/475 579/579/474 586/586/23
f 586/586/23 587/587/21 581/581/475
f 582/582/476 581/581/475 587/587/21
f 587/587/21 588/588/478 582/582/476
f 583/583/477 582/582/476 588/588/478
